<svg xmlns="http://www.w3.org/2000/svg" width="500" height="500">
<path d="M400.000000,250.000000 L399.984985,248.000076 L399.940002,246.000671 L399.865021,244.002243 L399.760101,242.005325 L399.625244,240.010406 L399.460480,238.017990 L399.265900,236.028564 L399.041534,234.042618 L398.787476,232.060669 L398.503754,230.083191 L398.190491,228.110687 L397.847778,226.143646 L397.475677,224.182556 L397.074371,222.227905 L396.643921,220.280182 L396.184509,218.339844 L395.696228,216.407410 L395.179199,214.483337 L394.633667,212.568085 L394.059692,210.662155 L393.457520,208.765991 L392.827332,206.880066 L392.169250,205.004852 L391.483551,203.140778 L390.770386,201.288330 L390.029968,199.447937 L389.262512,197.620056 L388.468292,195.805115 L387.647522,194.003586 L386.800415,192.215851 L385.927277,190.442383 L385.028320,188.683563 L384.103851,186.939850 L383.154114,185.211639 L382.179382,183.499329 L381.179962,181.803345 L380.156158,180.124054 L379.108276,178.461884 L378.036591,176.817200 L376.941437,175.190369 L375.823151,173.581787 L374.682037,171.991806 L373.518433,170.420792 L372.332703,168.869110 L371.125214,167.337097 L369.896240,165.825104 L368.646240,164.333466 L367.375488,162.862503 L366.084412,161.412537 L364.773376,159.983902 L363.442749,158.576874 L362.092926,157.191772 L360.724304,155.828888 L359.337280,154.488510 L357.932251,153.170898 L356.509644,151.876358 L355.069824,150.605118 L353.613251,149.357452 L352.140320,148.133606 L350.651459,146.933807 L349.147095,145.758286 L347.627655,144.607285 L346.093597,143.481003 L344.545349,142.379669 L342.983337,141.303452 L341.408020,140.252563 L339.819824,139.227188 L338.219208,138.227478 L336.606628,137.253601 L334.982574,136.305740 L333.347473,135.384033 L331.701752,134.488617 L330.045929,133.619629 L328.380432,132.777161 L326.705750,131.961365 L325.022339,131.172348 L323.330627,130.410187 L321.631165,129.674988 L319.924347,128.966797 L318.210693,128.285706 L316.490662,127.631790 L314.764709,127.005096 L313.033325,126.405663 L311.296936,125.833527 L309.556091,125.288727 L307.811218,124.771255 L306.062775,124.281143 L304.311279,123.818390 L302.557159,123.382996 L300.800903,122.974922 L299.042969,122.594177 L297.283813,122.240692 L295.523956,121.914444 L293.763794,121.615372 L292.003845,121.343445 L290.244507,121.098572 L288.486328,120.880676 L286.729675,120.689682 L284.975037,120.525513 L283.222900,120.388031 L281.473663,120.277145 L279.727783,120.192764 L277.985718,120.134735 L276.247925,120.102921 L274.514801,120.097214 L272.786804,120.117432 L271.064362,120.163422 L269.347900,120.235046 L267.637817,120.332108 L265.934540,120.454437 L264.238525,120.601852 L262.550171,120.774155 L260.869843,120.971146 L259.197968,121.192612 L257.534943,121.438339 L255.881165,121.708115 L254.237000,122.001701 L252.602859,122.318863 L250.979095,122.659355 L249.366104,123.022926 L247.764221,123.409340 L246.173813,123.818314 L244.595261,124.249596 L243.028900,124.702888 L241.475052,125.177933 L239.934082,125.674438 L238.406326,126.192101 L236.892090,126.730644 L235.391693,127.289749 L233.905457,127.869110 L232.433670,128.468414 L230.976654,129.087357 L229.534698,129.725586 L228.108078,130.382812 L226.697052,131.058670 L225.301941,131.752838 L223.922989,132.464966 L222.560455,133.194687 L221.214569,133.941711 L219.885605,134.705612 L218.573776,135.486084 L217.279327,136.282745 L216.002472,137.095245 L214.743408,137.923187 L213.502380,138.766235 L212.279556,139.623978 L211.075134,140.496063 L209.889297,141.382111 L208.722229,142.281708 L207.574097,143.194504 L206.445053,144.120087 L205.335251,145.058075 L204.244843,146.008087 L203.173965,146.969727 L202.122726,147.942581 L201.091278,148.926270 L200.079697,149.920395 L199.088120,150.924545 L198.116638,151.938324 L197.165314,152.961334 L196.234253,153.993195 L195.323517,155.033447 L194.433197,156.081741 L193.563309,157.137650 L192.713928,158.200775 L191.885086,159.270721 L191.076813,160.347076 L190.289139,161.429428 L189.522079,162.517395 L188.775650,163.610565 L188.049835,164.708542 L187.344635,165.810928 L186.660034,166.917328 L185.996033,168.027344 L185.352570,169.140564 L184.729614,170.256622 L184.127121,171.375092 L183.545044,172.495621 L182.983307,173.617798 L182.441879,174.741241 L181.920639,175.865601 L181.419525,176.990448 L180.938446,178.115417 L180.477295,179.240158 L180.035980,180.364273 L179.614380,181.487427 L179.212372,182.609222 L178.829834,183.729279 L178.466644,184.847290 L178.122650,185.962875 L177.797714,187.075684 L177.491669,188.185394 L177.204376,189.291611 L176.935638,190.394043 L176.685303,191.492340 L176.453186,192.586151 L176.239105,193.675186 L176.042877,194.759125 L175.864288,195.837631 L175.703125,196.910385 L175.559219,197.977097 L175.432327,199.037476 L175.322235,200.091202 L175.228714,201.138016 L175.151535,202.177612 L175.090454,203.209717 L175.045258,204.234055 L175.015671,205.250366 L175.001450,206.258392 L175.002350,207.257843 L175.018097,208.248505 L175.048431,209.230133 L175.093094,210.202469 L175.151794,211.165298 L175.224274,212.118408 L175.310242,213.061554 L175.409409,213.994522 L175.521500,214.917145 L175.646210,215.829193 L175.783234,216.730469 L175.932312,217.620804 L176.093124,218.500000 L176.265350,219.367920 L176.448700,220.224350 L176.642853,221.069183 L176.847504,221.902252 L177.062347,222.723389 L177.287048,223.532486 L177.521286,224.329407 L177.764771,225.114014 L178.017151,225.886230 L178.278122,226.645905 L178.547348,227.392960 L178.824493,228.127289 L179.109253,228.848816 L179.401291,229.557465 L179.700256,230.253159 L180.005859,230.935837 L180.317734,231.605423 L180.635574,232.261902 L180.959030,232.905212 L181.287781,233.535309 L181.621490,234.152176 L181.959839,234.755814 L182.302490,235.346161 L182.649109,235.923248 L182.999374,236.487061 L183.352951,237.037613 L183.709518,237.574921 L184.068756,238.098999 L184.430313,238.609894 L184.793900,239.107620 L185.159180,239.592239 L185.525818,240.063812 L185.893539,240.522369 L186.261978,240.967972 L186.630859,241.400726 L186.999847,241.820694 L187.368652,242.227951 L187.736954,242.622589 L188.104462,243.004730 L188.470856,243.374451 L188.835861,243.731873 L189.199158,244.077118 L189.560486,244.410309 L189.919556,244.731583 L190.276047,245.041061 L190.629700,245.338898 L190.980270,245.625244 L191.327423,245.900238 L191.670944,246.164062 L192.010544,246.416855 L192.345963,246.658813 L192.676941,246.890106 L193.003250,247.110916 L193.324631,247.321442 L193.640823,247.521851 L193.951630,247.712372 L194.256775,247.893188 L194.556061,248.064514 L194.849258,248.226578 L195.136139,248.379562 L195.416534,248.523727 L195.690186,248.659286 L195.956909,248.786469 L196.216537,248.905518 L196.468842,249.016663 L196.713669,249.120163 L196.950836,249.216248 L197.180161,249.305176 L197.401489,249.387207 L197.614655,249.462601 L197.819504,249.531616 L198.015900,249.594513 L198.203705,249.651566 L198.382767,249.703049 L198.552979,249.749237 L198.714203,249.790405 L198.866333,249.826813 L199.009262,249.858780 L199.142899,249.886551 L199.267120,249.910446 L199.381866,249.930725 L199.487045,249.947708 L199.582581,249.961655 L199.668427,249.972885 L199.744492,249.981674 L199.810745,249.988327 L199.867126,249.993134 L199.913589,249.996399 L199.950134,249.998428 L199.976685,249.999496 L199.993271,249.999924 L199.999878,250.000000 L199.996460,250.000031 L199.983063,250.000305 L199.959671,250.001144 L199.926300,250.002838 L199.882996,250.005661 L199.829773,250.009949 L199.766663,250.015991 L199.693710,250.024063 L199.610992,250.034485 L199.518524,250.047531 L199.416412,250.063507 L199.304703,250.082718 L199.183487,250.105423 L199.052856,250.131943 L198.912872,250.162537 L198.763657,250.197510 L198.605316,250.237122 L198.437958,250.281677 L198.261688,250.331436 L198.076660,250.386688 L197.882996,250.447693 L197.680817,250.514740 L197.470276,250.588074 L197.251541,250.667953 L197.024734,250.754669 L196.790054,250.848450 L196.547653,250.949554 L196.297714,251.058228 L196.040405,251.174728 L195.775909,251.299301 L195.504440,251.432159 L195.226166,251.573563 L194.941330,251.723724 L194.650116,251.882874 L194.352753,252.051224 L194.049438,252.228989 L193.740417,252.416397 L193.425919,252.613647 L193.106171,252.820923 L192.781403,253.038422 L192.451889,253.266357 L192.117844,253.504913 L191.779556,253.754242 L191.437256,254.014526 L191.091232,254.285950 L190.741730,254.568649 L190.389023,254.862808 L190.033401,255.168549 L189.675140,255.486053 L189.314499,255.815445 L188.951782,256.156830 L188.587311,256.510376 L188.221313,256.876160 L187.854126,257.254333 L187.486053,257.644958 L187.117371,258.048218 L186.748413,258.464111 L186.379456,258.892792 L186.010834,259.334290 L185.642853,259.788727 L185.275818,260.256134 L184.910080,260.736572 L184.545929,261.230133 L184.183685,261.736847 L183.823669,262.256714 L183.466217,262.789795 L183.111664,263.336121 L182.760300,263.895721 L182.412476,264.468567 L182.068542,265.054688 L181.728790,265.654114 L181.393570,266.266754 L181.063202,266.892639 L180.738007,267.531738 L180.418365,268.184021 L180.104553,268.849457 L179.796906,269.527954 L179.495789,270.219513 L179.201508,270.924042 L178.914398,271.641479 L178.634796,272.371735 L178.363007,273.114746 L178.099365,273.870422 L177.844208,274.638641 L177.597870,275.419312 L177.360626,276.212341 L177.132858,277.017548 L176.914856,277.834900 L176.706909,278.664154 L176.509369,279.505280 L176.322571,280.358002 L176.146759,281.222290 L175.982285,282.097900 L175.829437,282.984741 L175.688538,283.882507 L175.559860,284.791168 L175.443726,285.710449 L175.340408,286.640137 L175.250214,287.580078 L175.173401,288.529999 L175.110291,289.489777 L175.061127,290.459106 L175.026184,291.437836 L175.005768,292.425598 L175.000107,293.422333 L175.009491,294.427612 L175.034149,295.441315 L175.074341,296.463104 L175.130341,297.492798 L175.202362,298.530029 L175.290649,299.574585 L175.395447,300.626099 L175.516968,301.684448 L175.655426,302.749146 L175.811066,303.820038 L175.984070,304.896698 L176.174667,305.978973 L176.383041,307.066376 L176.609406,308.158752 L176.853897,309.255615 L177.116760,310.356781 L177.398132,311.461853 L177.698181,312.570465 L178.017090,313.682343 L178.354996,314.797058 L178.712067,315.914368 L179.088409,317.033783 L179.484207,318.155090 L179.899536,319.277802 L180.334564,320.401672 L180.789383,321.526245 L181.264114,322.651215 L181.758820,323.776123 L182.273651,324.900696 L182.808640,326.024414 L183.363907,327.147095 L183.939484,328.268158 L184.535477,329.387360 L185.151886,330.504211 L185.788834,331.618378 L186.446289,332.729431 L187.124329,333.837036 L187.822937,334.940735 L188.542206,336.040192 L189.282043,337.134888 L190.042557,338.224609 L190.823685,339.308807 L191.625366,340.387085 L192.447693,341.459137 L193.290512,342.524475 L194.153900,343.582733 L195.037689,344.633484 L195.941956,345.676361 L196.866516,346.710907 L197.811417,347.736786 L198.776459,348.753540 L199.761673,349.760803 L200.766876,350.758148 L201.792023,351.745239 L202.836945,352.721558 L203.901611,353.686829 L204.985779,354.640564 L206.089447,355.582458 L207.212341,356.512024 L208.354446,357.428955 L209.515472,358.332764 L210.695374,359.223206 L211.893860,360.099731 L213.110870,360.962128 L214.346100,361.809875 L215.599457,362.642670 L216.870636,363.460114 L218.159531,364.261871 L219.465881,365.047546 L220.789383,365.816772 L222.129944,366.569214 L223.487167,367.304474 L224.860962,368.022278 L226.250916,368.722168 L227.656921,369.403931 L229.078552,370.067078 L230.515701,370.711426 L231.967911,371.336517 L233.435059,371.942139 L234.916687,372.527893 L236.412643,373.093475 L237.922470,373.638580 L239.445999,374.162964 L240.982758,374.666229 L242.532562,375.148132 L244.094940,375.608398 L245.669693,376.046722 L247.256302,376.462830 L248.854614,376.856445 L250.464066,377.227295 L252.084473,377.575195 L253.715317,377.899811 L255.356369,378.200928 L257.007172,378.478333 L258.667236,378.731750 L260.336365,378.960938 L262.014008,379.165771 L263.699890,379.345947 L265.393494,379.501312 L267.094513,379.631653 L268.802429,379.736786 L270.516937,379.816528 L272.237488,379.870697 L273.963806,379.899170 L275.695312,379.901733 L277.431702,379.878235 L279.172394,379.828583 L280.917145,379.752594 L282.665314,379.650177 L284.416626,379.521179 L286.170471,379.365540 L287.926575,379.183075 L289.684265,378.973755 L291.443329,378.737488 L293.203094,378.474182 L294.963257,378.183777 L296.723236,377.866211 L298.482727,377.521393 L300.241119,377.149323 L301.997925,376.749939 L303.752808,376.323242 L305.505157,375.869232 L307.254639,375.387817 L309.000671,374.879089 L310.742920,374.342957 L312.480713,373.779541 L314.213776,373.188812 L315.941467,372.570801 L317.663483,371.925537 L319.379181,371.253113 L321.088257,370.553528 L322.790100,369.826965 L324.484344,369.073364 L326.170410,368.292877 L327.847961,367.485596 L329.516388,366.651642 L331.175385,365.791077 L332.824341,364.904083 L334.462891,363.990692 L336.090515,363.051178 L337.706818,362.085571 L339.311218,361.094116 L340.903473,360.076843 L342.482910,359.034088 L344.049255,357.965881 L345.601959,356.872498 L347.140564,355.754181 L348.664734,354.611023 L350.173889,353.443298 L351.667786,352.251190 L353.145813,351.035004 L354.607666,349.794861 L356.052826,348.531128 L357.480988,347.243958 L358.891632,345.933716 L360.284485,344.600525 L361.658966,343.244812 L363.014832,341.866699 L364.351593,340.466675 L365.668945,339.044861 L366.966400,337.601685 L368.243683,336.137329 L369.500305,334.652283 L370.736053,333.146729 L371.950409,331.621094 L373.143127,330.075592 L374.313782,328.510742 L375.462097,326.926727 L376.587677,325.324097 L377.690247,323.703003 L378.769470,322.063904 L379.824951,320.407288 L380.856506,318.733398 L381.863678,317.042725 L382.846313,315.335510 L383.804016,313.612366 L384.736633,311.873505 L385.643707,310.119507 L386.525116,308.350616 L387.380524,306.567413 L388.209717,304.770203 L389.012421,302.959534 L389.788452,301.135681 L390.537445,299.299255 L391.259338,297.450562 L391.953796,295.590210 L392.620728,293.718445 L393.259827,291.835938 L393.870941,289.942932 L394.453888,288.040100 L395.008514,286.127747 L395.534607,284.206482 L396.032074,282.276581 L396.500732,280.338776 L396.940430,278.393311 L397.351013,276.440765 L397.732422,274.481720 L398.084503,272.516479 L398.407166,270.545715 L398.700317,268.569702 L398.963806,266.589172 L399.197662,264.604431 L399.401733,262.616089 L399.575989,260.624512 L399.720398,258.630402 L399.834839,256.634003 L399.919373,254.636078 L399.973938,252.636871 L399.998474,250.637115 L399.993042,248.637100 L399.957581,246.637512 L399.892151,244.638672 L399.796783,242.641281 L399.671448,240.645630 L399.516205,238.652405 L399.331116,236.661911 L399.116241,234.674866 L398.871613,232.691544 L398.597351,230.712631 L398.293457,228.738449 L397.960144,226.769669 L397.597412,224.806580 L397.205383,222.849777 L396.784180,220.899841 L396.333984,218.957062 L395.854858,217.022095 L395.346985,215.095276 L394.810547,213.177200 L394.245605,211.268204 L393.652405,209.368927 L393.031128,207.479645 L392.381897,205.601013 L391.704956,203.733307 L391.000519,201.877151 L390.268738,200.032837 L389.509918,198.200958 L388.724182,196.381821 L387.911865,194.576004 L387.073120,192.783783 L386.208252,191.005768 L385.317474,189.242203 L384.401123,187.493683 L383.459351,185.760437 L382.492584,184.043060 L381.500977,182.341797 L380.484924,180.657196 L379.444641,178.989487 L378.380493,177.339142 L377.292816,175.706619 L376.181824,174.092148 L375.047974,172.496246 L373.891510,170.919128 L372.712830,169.361282 L371.512177,167.822937 L370.290039,166.304565 L369.046661,164.806366 L367.782532,163.328827 L366.497833,161.872101 L365.193146,160.436676 L363.868713,159.022690 L362.524994,157.630615 L361.162292,156.260590 L359.781128,154.913040 L358.381744,153.588120 L356.964722,152.286240 L355.530304,151.007507 L354.079041,149.752335 L352.611267,148.520844 L351.127441,147.313385 L349.627960,146.130096 L348.113312,144.971283 L346.583832,143.837082 L345.040009,142.727753 L343.482361,141.643539 L341.911194,140.584534 L340.327087,139.551025 L338.730347,138.543106 L337.121582,137.561020 L335.501099,136.604828 L333.869507,135.674805 L332.227081,134.770966 L330.574463,133.893555 L328.911987,133.042633 L327.240204,132.218353 L325.559479,131.420776 L323.870422,130.650055 L322.173340,129.906235 L320.468842,129.189453 L318.757263,128.499710 L317.039246,127.837158 L315.315094,127.201767 L313.585419,126.593658 L311.850555,126.012817 L310.111145,125.459305 L308.367432,124.933121 L306.620117,124.434311 L304.869507,123.962830 L303.116150,123.518723 L301.360535,123.101959 L299.603058,122.712494 L297.844299,122.350327 L296.084564,122.015411 L294.324493,121.707703 L292.564392,121.427124 L290.804871,121.173645 L289.046204,120.947159 L287.289062,120.747620 L285.533691,120.574890 L283.780762,120.428940 L282.030518,120.309601 L280.283569,120.216782 L278.540192,120.150360 L276.801025,120.110229 L275.066315,120.096207 L273.336700,120.108185 L271.612396,120.145996 L269.894012,120.209457 L268.181824,120.298447 L266.476379,120.412735 L264.777985,120.552185 L263.087158,120.716583 L261.404205,120.905731 L259.729645,121.119415 L258.063721,121.357452 L256.406891,121.619598 L254.759674,121.905609 L253.122269,122.215286 L251.495193,122.548370 L249.878693,122.904633 L248.273270,123.283783 L246.679138,123.685608 L245.096802,124.109802 L243.526489,124.556122 L241.968658,125.024261 L240.423523,125.513969 L238.891556,126.024918 L237.372940,126.556854 L235.868134,127.109421 L234.377319,127.682388 L232.900940,128.275360 L231.439148,128.888092 L229.992401,129.520203 L228.560822,130.171417 L227.144852,130.841370 L225.744614,131.529739 L224.360519,132.236160 L222.992676,132.960358 L221.641495,133.701874 L220.307083,134.460464 L218.989746,135.235718 L217.689758,136.027252 L216.407257,136.834747 L215.142532,137.657806 L213.895706,138.496094 L212.667084,139.349182 L211.456757,140.216751 L210.265015,141.098358 L209.091934,141.993713 L207.937775,142.902313 L206.802612,143.823883 L205.686691,144.757965 L204.590057,145.704193 L203.512970,146.662155 L202.455444,147.631500 L201.417694,148.611755 L200.399750,149.602631 L199.401825,150.603607 L198.423904,151.614380 L197.466171,152.634460 L196.528625,153.663574 L195.611450,154.701172 L194.714584,155.746979 L193.838196,156.800476 L192.982269,157.861359 L192.146851,158.929199 L191.332047,160.003525 L190.537796,161.084045 L189.764191,162.170242 L189.011169,163.261826 L188.278809,164.358292 L187.567017,165.459351 L186.875854,166.564529 L186.205338,167.673355 L185.555313,168.785614 L184.925812,169.900833 L184.316803,171.018600 L183.728271,172.138443 L183.160049,173.260162 L182.612152,174.383270 L182.084473,175.507416 L181.576996,176.632050 L181.089523,177.757050 L180.622040,178.881927 L180.174393,180.006317 L179.746552,181.129730 L179.338318,182.252014 L178.949585,183.372711 L178.580246,184.491425 L178.230179,185.607742 L177.899170,186.721497 L177.587128,187.832245 L177.293854,188.939651 L177.019226,190.043350 L176.763062,191.142914 L176.525162,192.238220 L176.305359,193.328842 L176.103455,194.414459 L175.919281,195.494644 L175.752594,196.569290 L175.603210,197.637985 L175.470917,198.700439 L175.355499,199.756256 L175.256714,200.805313 L175.174362,201.847275 L175.108185,202.881821 L175.057953,203.908585 L175.023407,204.927505 L175.004333,205.938202 L175.000443,206.940445 L175.011475,207.933868 L175.037201,208.918427 L175.077332,209.893768 L175.131592,210.859680 L175.199707,211.815826 L175.281403,212.762192 L175.376404,213.698456 L175.484406,214.624405 L175.605133,215.539856 L175.738266,216.444519 L175.883545,217.338379 L176.040649,218.221161 L176.209274,219.092712 L176.389099,219.952759 L176.579834,220.801331 L176.781189,221.638168 L176.992828,222.463150 L177.214401,223.276031 L177.445648,224.076874 L177.686234,224.865433 L177.935822,225.641632 L178.194061,226.405243 L178.460693,227.156342 L178.735382,227.894760 L179.017761,228.620392 L179.307495,229.333099 L179.604294,230.032959 L179.907822,230.719788 L180.217743,231.393585 L180.533691,232.054184 L180.855408,232.701706 L181.182510,233.336029 L181.514679,233.957138 L181.851593,234.564987 L182.192886,235.159531 L182.538284,235.740845 L182.887421,236.308899 L183.239990,236.863693 L183.595612,237.405182 L183.954041,237.933472 L184.314911,238.448578 L184.677887,238.950516 L185.042633,239.439270 L185.408905,239.915009 L185.776306,240.377701 L186.144562,240.827438 L186.513306,241.264252 L186.882309,241.688293 L187.251221,242.099594 L187.619720,242.498260 L187.987488,242.884338 L188.354279,243.258011 L188.719757,243.619354 L189.083649,243.968475 L189.445618,244.305466 L189.805420,244.630524 L190.162781,244.943756 L190.517395,245.245285 L190.868958,245.535278 L191.217224,245.813843 L191.561920,246.081207 L191.902817,246.337509 L192.239594,246.582916 L192.571991,246.817566 L192.899826,247.041702 L193.222809,247.255493 L193.540680,247.459106 L193.853210,247.652740 L194.160187,247.836624 L194.461380,248.010956 L194.756546,248.175949 L195.045441,248.331802 L195.327927,248.478760 L195.603760,248.617035 L195.872726,248.746857 L196.134613,248.868469 L196.389267,248.982101 L196.636505,249.088013 L196.876129,249.186432 L197.107956,249.277603 L197.331848,249.361816 L197.547638,249.439285 L197.755173,249.510315 L197.954285,249.575134 L198.144806,249.634018 L198.326675,249.687241 L198.499725,249.735077 L198.663834,249.777817 L198.818863,249.815704 L198.964737,249.849060 L199.101334,249.878143 L199.228577,249.903244 L199.346344,249.924637 L199.454590,249.942642 L199.553207,249.957520 L199.642136,249.969589 L199.721329,249.979126 L199.790710,249.986420 L199.850235,249.991791 L199.899857,249.995514 L199.939560,249.997894 L199.969315,249.999237 L199.989075,249.999832 L199.998856,250.000000 L199.998642,250.000000 L199.988419,250.000183 L199.968201,250.000809 L199.938019,250.002182 L199.897873,250.004623 L199.847809,250.008408 L199.787842,250.013855 L199.718018,250.021255 L199.638397,250.030884 L199.549042,250.043076 L199.449982,250.058090 L199.341324,250.076233 L199.223129,250.097794 L199.095490,250.123062 L198.958466,250.152328 L198.812164,250.185867 L198.656723,250.223984 L198.492249,250.266937 L198.318802,250.315002 L198.136551,250.368484 L197.945602,250.427628 L197.746140,250.492706 L197.538239,250.564011 L197.322098,250.641785 L197.097839,250.726288 L196.865662,250.817780 L196.625702,250.916534 L196.378143,251.022766 L196.123138,251.136765 L195.860947,251.258728 L195.591660,251.388916 L195.315552,251.527573 L195.032776,251.674927 L194.743561,251.831192 L194.448151,251.996567 L194.146698,252.171326 L193.839462,252.355652 L193.526672,252.549728 L193.208588,252.753784 L192.885391,252.968018 L192.557358,253.192612 L192.224716,253.427765 L191.887772,253.673615 L191.546722,253.930405 L191.201843,254.198273 L190.853409,254.477371 L190.501724,254.767838 L190.146988,255.069885 L189.789520,255.383636 L189.429596,255.709229 L189.067551,256.046753 L188.703583,256.396423 L188.338043,256.758301 L187.971191,257.132507 L187.603394,257.519165 L187.234863,257.918365 L186.865936,258.330261" fill="none" stroke="black" />
</svg>
