<svg xmlns="http://www.w3.org/2000/svg" width="500" height="500">
<path d="M251.080597,251.682938 L251.097382,251.672043 L251.114059,251.660980 L251.130630,251.649750 L251.147079,251.638367 L251.163406,251.626801 L251.179626,251.615082 L251.195724,251.603195 L251.211700,251.591156 L251.227570,251.578949 L251.243301,251.566589 L251.258911,251.554077 L251.274399,251.541397 L251.289749,251.528580 L251.304977,251.515594 L251.320084,251.502457 L251.335052,251.489182 L251.349884,251.475754 L251.364578,251.462173 L251.379135,251.448441 L251.393555,251.434570 L251.407837,251.420563 L251.421982,251.406403 L251.435989,251.392105 L251.449844,251.377670 L251.463547,251.363098 L251.477112,251.348389 L251.490524,251.333542 L251.503799,251.318558 L251.516922,251.303452 L251.529877,251.288208 L251.542694,251.272827 L251.555344,251.257339 L251.567856,251.241714 L251.580200,251.225967 L251.592377,251.210083 L251.604416,251.194092 L251.616272,251.177979 L251.627975,251.161758 L251.639526,251.145416 L251.650894,251.128952 L251.662109,251.112381 L251.673157,251.095688 L251.684036,251.078903 L251.694748,251.061996 L251.705292,251.044983 L251.715652,251.027878 L251.725861,251.010651 L251.735886,250.993332 L251.745728,250.975922 L251.755402,250.958405 L251.764908,250.940796 L251.774231,250.923096 L251.783386,250.905289 L251.792343,250.887405 L251.801132,250.869431 L251.809738,250.851364 L251.818176,250.833221 L251.826416,250.814987 L251.834473,250.796677 L251.842361,250.778275 L251.850052,250.759811 L251.857559,250.741257 L251.864883,250.722641 L251.872025,250.703934 L251.878967,250.685181 L251.885727,250.666336 L251.892303,250.647446 L251.898682,250.628479 L251.904877,250.609451 L251.910889,250.590363 L251.916687,250.571213 L251.922318,250.552002 L251.927734,250.532745 L251.932968,250.513443 L251.938019,250.494064 L251.942856,250.474655 L251.947510,250.455200 L251.951965,250.435684 L251.956223,250.416138 L251.960297,250.396545 L251.964157,250.376907 L251.967834,250.357239 L251.971313,250.337540 L251.974594,250.317795 L251.977676,250.298019 L251.980560,250.278229 L251.983231,250.258392 L251.985718,250.238541 L251.988007,250.218658 L251.990097,250.198761 L251.991989,250.178833 L251.993683,250.158905 L251.995163,250.138947 L251.996460,250.118973 L251.997543,250.098999 L251.998444,250.079010 L251.999130,250.059006 L251.999619,250.039001 L251.999908,250.018997 L252.000000,249.998993 L251.999893,249.978973 L251.999573,249.958969 L251.999069,249.938965 L251.998352,249.918961 L251.997452,249.898972 L251.996338,249.878998 L251.995026,249.859024 L251.993515,249.839081 L251.991806,249.819138 L251.989899,249.799225 L251.987793,249.779327 L251.985474,249.759445 L251.982971,249.739594 L251.980270,249.719772 L251.977371,249.699966 L251.974274,249.680206 L251.970963,249.660461 L251.967468,249.640762 L251.963776,249.621094 L251.959885,249.601471 L251.955811,249.581879 L251.951523,249.562332 L251.947052,249.542831 L251.942383,249.523376 L251.937515,249.503967 L251.932449,249.484604 L251.927200,249.465302 L251.921753,249.446045 L251.916107,249.426834 L251.910278,249.407700 L251.904266,249.388611 L251.898056,249.369598 L251.891647,249.350632 L251.885056,249.331741 L251.878281,249.312912 L251.871307,249.294159 L251.864151,249.275467 L251.856812,249.256866 L251.849289,249.238312 L251.841568,249.219849 L251.833664,249.201477 L251.825592,249.183167 L251.817322,249.164948 L251.808884,249.146805 L251.800247,249.128738 L251.791443,249.110779 L251.782455,249.092896 L251.773300,249.075104 L251.763947,249.057419 L251.754440,249.039810 L251.744736,249.022308 L251.734879,249.004898 L251.724823,248.987595 L251.714615,248.970383 L251.704224,248.953278 L251.693665,248.936279 L251.682938,248.919388 L251.672043,248.902618 L251.660980,248.885941 L251.649750,248.869370 L251.638367,248.852921 L251.626801,248.836594 L251.615082,248.820374 L251.603195,248.804276 L251.591156,248.788300 L251.578949,248.772430 L251.566589,248.756699 L251.554077,248.741089 L251.541397,248.725601 L251.528580,248.710251 L251.515594,248.695023 L251.502457,248.679916 L251.489182,248.664948 L251.475754,248.650116 L251.462173,248.635422 L251.448441,248.620865 L251.434570,248.606445 L251.420563,248.592163 L251.406403,248.578018 L251.392105,248.564011 L251.377670,248.550156 L251.363098,248.536453 L251.348373,248.522888 L251.333542,248.509476 L251.318558,248.496201 L251.303452,248.483078 L251.288208,248.470123 L251.272827,248.457306 L251.257339,248.444656 L251.241714,248.432144 L251.225967,248.419800 L251.210083,248.407623 L251.194092,248.395584 L251.177979,248.383728 L251.161758,248.372025 L251.145416,248.360474 L251.128952,248.349106 L251.112381,248.337891 L251.095688,248.326843 L251.078903,248.315964 L251.061996,248.305252 L251.044983,248.294708 L251.027878,248.284348 L251.010651,248.274139 L250.993332,248.264114 L250.975922,248.254272 L250.958405,248.244598 L250.940796,248.235092 L250.923096,248.225769 L250.905289,248.216614 L250.887405,248.207657 L250.869431,248.198868 L250.851364,248.190262 L250.833221,248.181824 L250.814987,248.173584 L250.796677,248.165527 L250.778275,248.157639 L250.759811,248.149948 L250.741257,248.142441 L250.722641,248.135117 L250.703934,248.127975 L250.685181,248.121033 L250.666336,248.114273 L250.647446,248.107697 L250.628479,248.101318 L250.609451,248.095123 L250.590363,248.089111 L250.571213,248.083313 L250.552002,248.077682 L250.532745,248.072266 L250.513443,248.067032 L250.494064,248.061981 L250.474655,248.057144 L250.455200,248.052490 L250.435684,248.048035 L250.416138,248.043777 L250.396545,248.039703 L250.376907,248.035843 L250.357239,248.032166 L250.337540,248.028687 L250.317795,248.025406 L250.298019,248.022324 L250.278229,248.019440 L250.258392,248.016769 L250.238541,248.014282 L250.218658,248.011993 L250.198761,248.009903 L250.178833,248.008011 L250.158905,248.006317 L250.138947,248.004837 L250.118973,248.003540 L250.098999,248.002457 L250.079010,248.001556 L250.059006,248.000870 L250.039001,248.000381 L250.018997,248.000092 L249.998993,248.000000 L249.978973,248.000107 L249.958969,248.000427 L249.938965,248.000931 L249.918961,248.001648 L249.898972,248.002548 L249.878998,248.003662 L249.859024,248.004974 L249.839081,248.006485 L249.819138,248.008194 L249.799225,248.010101 L249.779327,248.012207 L249.759445,248.014526 L249.739594,248.017029 L249.719772,248.019730 L249.699966,248.022629 L249.680206,248.025726 L249.660461,248.029037 L249.640762,248.032532 L249.621094,248.036224 L249.601471,248.040115 L249.581879,248.044189 L249.562332,248.048477 L249.542831,248.052948 L249.523376,248.057617 L249.503967,248.062485 L249.484604,248.067551 L249.465302,248.072800 L249.446045,248.078247 L249.426834,248.083893 L249.407700,248.089722 L249.388611,248.095734 L249.369598,248.101944 L249.350632,248.108353 L249.331741,248.114944 L249.312912,248.121719 L249.294159,248.128693 L249.275467,248.135849 L249.256866,248.143188 L249.238312,248.150711 L249.219849,248.158432 L249.201477,248.166336 L249.183167,248.174408 L249.164932,248.182678 L249.146805,248.191116 L249.128738,248.199753 L249.110779,248.208557 L249.092896,248.217545 L249.075104,248.226700 L249.057419,248.236053 L249.039810,248.245560 L249.022308,248.255264 L249.004898,248.265121 L248.987595,248.275177 L248.970383,248.285385 L248.953278,248.295776 L248.936279,248.306335 L248.919388,248.317062 L248.902618,248.327957 L248.885941,248.339020 L248.869370,248.350250 L248.852921,248.361633 L248.836594,248.373199 L248.820374,248.384918 L248.804276,248.396805 L248.788300,248.408844 L248.772430,248.421051 L248.756699,248.433411 L248.741089,248.445923 L248.725601,248.458603 L248.710251,248.471420 L248.695023,248.484406 L248.679916,248.497543 L248.664948,248.510818 L248.650116,248.524261 L248.635422,248.537827 L248.620865,248.551559 L248.606445,248.565430 L248.592163,248.579437 L248.578018,248.593597 L248.564011,248.607895 L248.550156,248.622330 L248.536453,248.636902 L248.522888,248.651627 L248.509476,248.666458 L248.496201,248.681442 L248.483078,248.696548 L248.470123,248.711792 L248.457306,248.727173 L248.444656,248.742661 L248.432144,248.758286 L248.419800,248.774033 L248.407623,248.789917 L248.395584,248.805908 L248.383728,248.822021 L248.372025,248.838242 L248.360474,248.854584 L248.349106,248.871048 L248.337891,248.887619 L248.326843,248.904312 L248.315964,248.921097 L248.305252,248.938004 L248.294708,248.955017 L248.284348,248.972122 L248.274139,248.989349 L248.264114,249.006668 L248.254272,249.024078 L248.244598,249.041595 L248.235092,249.059204 L248.225769,249.076904 L248.216614,249.094711 L248.207657,249.112595 L248.198868,249.130569 L248.190262,249.148636 L248.181824,249.166779 L248.173584,249.185013 L248.165527,249.203323 L248.157639,249.221725 L248.149948,249.240189 L248.142441,249.258743 L248.135117,249.277359 L248.127975,249.296066 L248.121033,249.314819 L248.114273,249.333664 L248.107697,249.352554 L248.101318,249.371521 L248.095123,249.390549 L248.089111,249.409637 L248.083313,249.428787 L248.077682,249.447998 L248.072266,249.467255 L248.067032,249.486572 L248.061981,249.505936 L248.057144,249.525345 L248.052490,249.544800 L248.048035,249.564316 L248.043777,249.583862 L248.039703,249.603455 L248.035843,249.623093 L248.032166,249.642761 L248.028687,249.662460 L248.025406,249.682205 L248.022324,249.701981 L248.019440,249.721771 L248.016769,249.741608 L248.014282,249.761459 L248.011993,249.781342 L248.009903,249.801239 L248.008011,249.821167 L248.006317,249.841095 L248.004837,249.861053 L248.003540,249.881027 L248.002457,249.901001 L248.001556,249.920990 L248.000870,249.940994 L248.000381,249.960999 L248.000092,249.981003 L248.000000,250.001007 L248.000107,250.021027 L248.000427,250.041031 L248.000931,250.061035 L248.001648,250.081039 L248.002548,250.101028 L248.003662,250.121002 L248.004974,250.140976 L248.006485,250.160919 L248.008194,250.180862 L248.010101,250.200775 L248.012207,250.220673 L248.014526,250.240555 L248.017029,250.260406 L248.019730,250.280228 L248.022629,250.300034 L248.025726,250.319794 L248.029037,250.339539 L248.032532,250.359238 L248.036224,250.378906 L248.040115,250.398529 L248.044189,250.418121 L248.048477,250.437668 L248.052948,250.457169 L248.057617,250.476624 L248.062485,250.496033 L248.067551,250.515396 L248.072800,250.534698 L248.078247,250.553955 L248.083893,250.573166 L248.089722,250.592300 L248.095734,250.611389 L248.101944,250.630402 L248.108353,250.649368 L248.114944,250.668259 L248.121719,250.687088 L248.128693,250.705841 L248.135849,250.724533 L248.143188,250.743149 L248.150726,250.761688 L248.158432,250.780151 L248.166336,250.798538 L248.174408,250.816833 L248.182678,250.835068 L248.191116,250.853195 L248.199753,250.871262 L248.208557,250.889221 L248.217545,250.907104 L248.226700,250.924896 L248.236053,250.942581 L248.245560,250.960190 L248.255264,250.977692 L248.265121,250.995102 L248.275177,251.012405 L248.285385,251.029617 L248.295776,251.046722 L248.306335,251.063705 L248.317062,251.080612 L248.327957,251.097382 L248.339020,251.114059 L248.350250,251.130630 L248.361633,251.147079 L248.373199,251.163406 L248.384918,251.179626 L248.396805,251.195724 L248.408844,251.211700 L248.421051,251.227570 L248.433411,251.243301 L248.445923,251.258911 L248.458603,251.274399 L248.471420,251.289749 L248.484406,251.304977 L248.497543,251.320084 L248.510818,251.335052 L248.524261,251.349884 L248.537827,251.364578 L248.551559,251.379135 L248.565430,251.393555 L248.579437,251.407837 L248.593597,251.421982 L248.607895,251.435989 L248.622330,251.449844 L248.636902,251.463547 L248.651627,251.477112 L248.666458,251.490540 L248.681442,251.503799 L248.696548,251.516922 L248.711792,251.529877 L248.727173,251.542694 L248.742661,251.555344 L248.758286,251.567856 L248.774033,251.580200 L248.789917,251.592377 L248.805908,251.604416 L248.822021,251.616272 L248.838242,251.627975 L248.854584,251.639526 L248.871048,251.650894 L248.887619,251.662109 L248.904312,251.673157 L248.921097,251.684036 L248.938004,251.694748 L248.955017,251.705292 L248.972122,251.715652 L248.989349,251.725861 L249.006668,251.735886 L249.024078,251.745728 L249.041595,251.755402 L249.059204,251.764908 L249.076904,251.774231 L249.094711,251.783386 L249.112595,251.792343 L249.130569,251.801132 L249.148636,251.809738 L249.166779,251.818176 L249.185013,251.826416 L249.203323,251.834488 L249.221725,251.842361 L249.240189,251.850052 L249.258743,251.857559 L249.277359,251.864883 L249.296066,251.872025 L249.314819,251.878967 L249.333664,251.885727 L249.352554,251.892303 L249.371521,251.898682 L249.390549,251.904877 L249.409637,251.910889 L249.428787,251.916687 L249.447998,251.922318 L249.467255,251.927734 L249.486572,251.932968 L249.505936,251.938019 L249.525345,251.942856 L249.544800,251.947510 L249.564316,251.951965 L249.583862,251.956223 L249.603455,251.960297 L249.623093,251.964157 L249.642761,251.967834 L249.662460,251.971313 L249.682205,251.974594 L249.701981,251.977676 L249.721771,251.980560 L249.741608,251.983231 L249.761459,251.985718 L249.781342,251.988007 L249.801239,251.990097 L249.821167,251.991989 L249.841095,251.993683 L249.861053,251.995163 L249.881027,251.996460 L249.901001,251.997543 L249.920990,251.998444 L249.940994,251.999130 L249.960999,251.999619 L249.981003,251.999908 L250.001022,252.000000 L250.021027,251.999893 L250.041031,251.999573 L250.061035,251.999069 L250.081039,251.998352 L250.101028,251.997452 L250.121002,251.996338 L250.140976,251.995026 L250.160919,251.993515 L250.180862,251.991806 L250.200775,251.989899 L250.220673,251.987793 L250.240555,251.985474 L250.260406,251.982971 L250.280228,251.980270 L250.300034,251.977371 L250.319794,251.974274 L250.339539,251.970963 L250.359238,251.967468 L250.378906,251.963776 L250.398529,251.959885 L250.418121,251.955811 L250.437668,251.951523 L250.457169,251.947052 L250.476624,251.942383 L250.496033,251.937515 L250.515396,251.932449 L250.534698,251.927200 L250.553955,251.921753 L250.573166,251.916107 L250.592300,251.910278 L250.611389,251.904266 L250.630402,251.898056 L250.649368,251.891647 L250.668259,251.885056 L250.687088,251.878281 L250.705841,251.871307 L250.724533,251.864151 L250.743134,251.856812 L250.761688,251.849274 L250.780151,251.841568 L250.798538,251.833664 L250.816833,251.825592 L250.835068,251.817322 L250.853195,251.808884 L250.871262,251.800247 L250.889221,251.791443 L250.907104,251.782455 L250.924896,251.773300 L250.942581,251.763947 L250.960190,251.754440 L250.977692,251.744736 L250.995102,251.734879 L251.012405,251.724823 L251.029617,251.714615 L251.046722,251.704224 L251.063721,251.693665 z" fill="none" stroke="black" />
</svg>
