<svg xmlns="http://www.w3.org/2000/svg" width="600" height="600">
<path d="M596.000000,300.000000 L595.986633,297.272247 L595.946594,294.544769 L595.879883,291.817810 L595.786438,289.091644 L595.666321,286.366547 L595.519531,283.642761 L595.346130,280.920593 L595.146057,278.200287 L594.919373,275.482086 L594.666138,272.766266 L594.386292,270.053101 L594.079956,267.342865 L593.747070,264.635803 L593.387695,261.932159 L593.001892,259.232239 L592.589722,256.536316 L592.151123,253.844589 L591.686279,251.157364 L591.195068,248.474884 L590.677734,245.797424 L590.134216,243.125259 L589.564575,240.458618 L588.968811,237.797760 L588.347107,235.142975 L587.699463,232.494507 L587.025940,229.852585 L586.326599,227.217499 L585.601501,224.589508 L584.850769,221.968842 L584.074463,219.355789 L583.272583,216.750565 L582.445312,214.153442 L581.592651,211.564697 L580.714783,208.984528 L579.811646,206.413239 L578.883484,203.851044 L577.930298,201.298203 L576.952209,198.754974 L575.949341,196.221588 L574.921753,193.698303 L573.869568,191.185379 L572.792847,188.683014 L571.691772,186.191498 L570.566406,183.711029 L569.416809,181.241882 L568.243225,178.784302 L567.045654,176.338501 L565.824219,173.904724 L564.579163,171.483215 L563.310547,169.074219 L562.018433,166.677917 L560.703003,164.294617 L559.364319,161.924500 L558.002686,159.567825 L556.618042,157.224792 L555.210632,154.895630 L553.780579,152.580597 L552.328003,150.279877 L550.853088,147.993713 L549.355957,145.722351 L547.836792,143.465942 L546.295654,141.224792 L544.732788,138.999054 L543.148315,136.788971 L541.542358,134.594757 L539.915100,132.416595 L538.266785,130.254730 L536.597412,128.109344 L534.907349,125.980652 L533.196533,123.868881 L531.465332,121.774231 L529.713867,119.696899 L527.942200,117.637054 L526.150635,115.594940 L524.339355,113.570740 L522.508423,111.564621 L520.658081,109.576828 L518.788574,107.607513 L516.900024,105.656891 L514.992615,103.725098 L513.066528,101.812393 L511.122040,99.918930 L509.159241,98.044861 L507.178375,96.190399 L505.179626,94.355728 L503.163208,92.541016 L501.129272,90.746429 L499.078094,88.972137 L497.009827,87.218323 L494.924683,85.485168 L492.822876,83.772797 L490.704651,82.081390 L488.570160,80.411133 L486.419617,78.762161 L484.253296,77.134644 L482.071350,75.528748 L479.874023,73.944611 L477.661499,72.382355 L475.434021,70.842178 L473.191864,69.324219 L470.935150,67.828613 L468.664185,66.355484 L466.379150,64.905014 L464.080292,63.477325 L461.767822,62.072510 L459.441986,60.690750 L457.103027,59.332184 L454.751129,57.996902 L452.386536,56.685043 L450.009552,55.396759 L447.620331,54.132156 L445.219147,52.891327 L442.806244,51.674423 L440.381836,50.481537 L437.946167,49.312805 L435.499512,48.168320 L433.042084,47.048187 L430.574097,45.952515 L428.095856,44.881424 L425.607605,43.834961 L423.109558,42.813293 L420.601929,41.816467 L418.085052,40.844604 L415.559143,39.897766 L413.024414,38.976074 L410.481140,38.079590 L407.929596,37.208405 L405.370026,36.362579 L402.802673,35.542236 L400.227783,34.747406 L397.645630,33.978180 L395.056458,33.234619 L392.460541,32.516815 L389.858124,31.824829 L387.249451,31.158691 L384.634796,30.518463 L382.014404,29.904266 L379.388580,29.316040 L376.757507,28.753967 L374.121521,28.218018 L371.480865,27.708252 L368.835785,27.224701 L366.186523,26.767456 L363.533356,26.336456 L360.876587,25.931854 L358.216431,25.553619 L355.553162,25.201843 L352.887024,24.876465 L350.218353,24.577545 L347.547363,24.305115 L344.874329,24.059235 L342.199463,23.839844 L339.523102,23.647034 L336.845490,23.480743 L334.166870,23.341034 L331.487518,23.227905 L328.807739,23.141357 L326.127747,23.081360 L323.447845,23.047974 L320.768219,23.041138 L318.089233,23.060883 L315.411133,23.107178 L312.734131,23.180054 L310.058563,23.279419 L307.384583,23.405334 L304.712585,23.557739 L302.042755,23.736633 L299.375397,23.941986 L296.710724,24.173767 L294.049072,24.431915 L291.390625,24.716431 L288.735718,25.027283 L286.084534,25.364441 L283.437408,25.727844 L280.794586,26.117462 L278.156311,26.533203 L275.522858,26.975098 L272.894470,27.443054 L270.271423,27.937012 L267.653961,28.456909 L265.042358,29.002716 L262.436829,29.574341 L259.837708,30.171753 L257.245209,30.794861 L254.659607,31.443604 L252.081100,32.117950 L249.510010,32.817749 L246.946564,33.542969 L244.391022,34.293518 L241.843597,35.069336 L239.304596,35.870300 L236.774261,36.696350 L234.252823,37.547424 L231.740540,38.423340 L229.237610,39.324127 L226.744385,40.249603 L224.261017,41.199677 L221.787811,42.174286 L219.324951,43.173279 L216.872787,44.196564 L214.431396,45.244064 L212.001129,46.315674 L209.582275,47.411163 L207.174927,48.530609 L204.779419,49.673737 L202.396027,50.840454 L200.024841,52.030670 L197.666275,53.244247 L195.320389,54.481094 L192.987488,55.741043 L190.667877,57.023941 L188.361649,58.329712 L186.069153,59.658142 L183.790497,61.009155 L181.525970,62.382614 L179.275848,63.778290 L177.040222,65.196167 L174.819412,66.636017 L172.613647,68.097656 L170.423050,69.581024 L168.247955,71.085876 L166.088440,72.612152 L163.944809,74.159607 L161.817291,75.728073 L159.706009,77.317505 L157.611267,78.927582 L155.533173,80.558289 L153.471985,82.209351 L151.427948,83.880600 L149.401154,85.571930 L147.391876,87.283127 L145.400345,89.013977 L143.426666,90.764374 L141.471100,92.534058 L139.533783,94.322937 L137.614944,96.130768 L135.714783,97.957336 L133.833435,99.802521 L131.971115,101.666107 L130.128052,103.547852 L128.304337,105.447632 L126.500214,107.365204 L124.715820,109.300415 L122.951324,111.253052 L121.206970,113.222870 L119.482834,115.209732 L117.779175,117.213348 L116.096054,119.233612 L114.433716,121.270264 L112.792313,123.323059 L111.171967,125.391876 L109.572861,127.476440 L107.995178,129.576508 L106.439026,131.691925 L104.904587,133.822433 L103.391968,135.967880 L101.901367,138.127991 L100.432938,140.302505 L98.986740,142.491272 L97.563019,144.694031 L96.161804,146.910568 L94.783295,149.140686 L93.427673,151.384048 L92.094940,153.640579 L90.785339,155.909943 L89.498947,158.191895 L88.235901,160.486267 L86.996338,162.792755 L85.780304,165.111206 L84.587997,167.441345 L83.419540,169.782867 L82.274963,172.135651 L81.154449,174.499359 L80.058075,176.873810 L78.985931,179.258743 L77.938171,181.653854 L76.914841,184.059021 L75.916046,186.473923 L74.941940,188.898254 L73.992538,191.331879 L73.067993,193.774460 L72.168350,196.225845 L71.293701,198.685715 L70.444168,201.153778 L69.619751,203.629883 L68.820587,206.113739 L68.046753,208.605011 L67.298325,211.103592 L66.575348,213.609070 L65.877899,216.121338 L65.206024,218.640045 L64.559830,221.164917 L63.939316,223.695786 L63.344620,226.232285 L62.775726,228.774277 L62.232697,231.321426 L61.715622,233.873444 L61.224518,236.430145 L60.759415,238.991241 L60.320389,241.556427 L59.907471,244.125519 L59.520660,246.698151 L59.160034,249.274185 L58.825592,251.853287 L58.517426,254.435150 L58.235458,257.019623 L57.979813,259.606323 L57.750443,262.195099 L57.547394,264.785645 L57.370697,267.377594 L57.220337,269.970856 L57.096313,272.565094 L56.998657,275.159943 L56.927368,277.755310 L56.882446,280.350769 L56.863907,282.946198 L56.871719,285.541290 L56.905869,288.135681 L56.966415,290.729218 L57.053268,293.321625 L57.166443,295.912567 L57.305954,298.501892 L57.471741,301.089172 L57.663788,303.674316 L57.882080,306.257019 L58.126572,308.836884 L58.397278,311.413849 L58.694122,313.987457 L59.017090,316.557617 L59.366150,319.123993 L59.741226,321.686249 L60.142334,324.244263 L60.569366,326.797699 L61.022308,329.346252 L61.501099,331.889771 L62.005692,334.427887 L62.536041,336.960449 L63.092072,339.487152 L63.673721,342.007690 L64.280945,344.521881 L64.913635,347.029358 L65.571777,349.530029 L66.255280,352.023529 L66.964050,354.509583 L67.698029,356.988068 L68.457123,359.458618 L69.241272,361.920929 L70.050385,364.374908 L70.884369,366.820190 L71.743134,369.256592 L72.626587,371.683838 L73.534637,374.101624 L74.467224,376.509827 L75.424164,378.908051 L76.405457,381.296204 L77.410919,383.673950 L78.440475,386.041046 L79.494034,388.397339 L80.571472,390.742493 L81.672623,393.076233 L82.797455,395.398438 L83.945786,397.708801 L85.117554,400.007141 L86.312622,402.293182 L87.530792,404.566650 L88.772034,406.827393 L90.036163,409.075195 L91.323029,411.309692 L92.632553,413.530792 L93.964554,415.738159 L95.318954,417.931702 L96.695557,420.111115 L98.094193,422.276123 L99.514801,424.426636 L100.957153,426.562317 L102.421173,428.683044 L103.906662,430.788544 L105.413437,432.878540 L106.941406,434.952972 L108.490387,437.011536 L110.060181,439.053955 L111.650681,441.080170 L113.261688,443.089874 L114.893066,445.082886 L116.544617,447.059052 L118.216156,449.018036 L119.907562,450.959808 L121.618607,452.884033 L123.349152,454.790588 L125.099030,456.679291 L126.867950,458.549866 L128.655884,460.402222 L130.462585,462.236084 L132.287781,464.051300 L134.131439,465.847717 L135.993225,467.625061 L137.873047,469.383240 L139.770691,471.122070 L141.685883,472.841309 L143.618500,474.540771 L145.568359,476.220428 L147.535233,477.879974 L149.518906,479.519287 L151.519196,481.138184 L153.535797,482.736420 L155.568665,484.314026 L157.617523,485.870667 L159.682129,487.406281 L161.762329,488.920654 L163.857834,490.413666 L165.968384,491.885071 L168.093933,493.334869 L170.234192,494.762817 L172.388901,496.168823 L174.557861,497.552673 L176.740738,498.914215 L178.937531,500.253418 L181.147888,501.570068 L183.371597,502.864075 L185.608429,504.135254 L187.858032,505.383423 L190.120392,506.608582 L192.395203,507.810577 L194.682175,508.989197 L196.981110,510.144440 L199.291641,511.276031 L201.613785,512.384033 L203.947174,513.468201 L206.291550,514.528503 L208.646698,515.564758 L211.012360,516.576904 L213.388184,517.564819 L215.774155,518.528442 L218.169922,519.467651 L220.575226,520.382324 L222.989822,521.272339 L225.413361,522.137695 L227.845795,522.978149 L230.286789,523.793823 L232.736084,524.584534 L235.193405,525.350098 L237.658417,526.090576 L240.131088,526.805908 L242.611053,527.495850 L245.098022,528.160522 L247.591797,528.799683 L250.091965,529.413452 L252.598511,530.001587 L255.111084,530.564087 L257.629395,531.100952 L260.153198,531.612061 L262.682098,532.097351 L265.216095,532.556824 L267.754822,532.990417 L270.297974,533.398071 L272.845337,533.779724 L275.396637,534.135376 L277.951477,534.464905 L280.509827,534.768372 L283.071350,535.045776 L285.635712,535.296936 L288.202728,535.521912 L290.771973,535.720703 L293.343414,535.893188 L295.916687,536.039490 L298.491516,536.159485 L301.067657,536.253174 L303.644714,536.320557 L306.222626,536.361633 L308.801086,536.376404 L311.379761,536.364868 L313.958405,536.326904 L316.536652,536.262756 L319.114471,536.172180 L321.691467,536.055359 L324.267395,535.912170 L326.841949,535.742676 L329.414917,535.546997 L331.985870,535.325012 L334.554810,535.076782 L337.121338,534.802307 L339.685211,534.501587 L342.246155,534.174805 L344.803772,533.821838 L347.358063,533.442749 L349.908630,533.037598 L352.455231,532.606445 L354.997559,532.149231 L357.535309,531.666138 L360.068390,531.157104 L362.596436,530.622192 L365.119232,530.061523 L367.636475,529.475098 L370.147766,528.862976 L372.653168,528.225220 L375.152222,527.561829 L377.644714,526.872925 L380.130371,526.158691 L382.608826,525.419006 L385.080078,524.654053 L387.543701,523.863831 L389.999512,523.048462 L392.447205,522.208008 L394.886536,521.342590 L397.317169,520.452271 L399.739075,519.537109 L402.151855,518.597290 L404.555298,517.632751 L406.949127,516.643677 L409.333008,515.630188 L411.706909,514.592346 L414.070496,513.530212 L416.423492,512.443970 L418.765686,511.333649 L421.096680,510.199493 L423.416504,509.041473 L425.724792,507.859741 L428.021301,506.654419 L430.305786,505.425598 L432.577942,504.173523 L434.837677,502.898163 L437.084717,501.599731 L439.318817,500.278320 L441.539734,498.934052 L443.747253,497.567078 L445.941010,496.177612 L448.121033,494.765594 L450.286926,493.331360 L452.438538,491.874939 L454.575623,490.396484 L456.697845,488.896271 L458.805206,487.374237 L460.897339,485.830658 L462.974121,484.265686 L465.035248,482.679443 L467.080444,481.072144 L469.109680,479.443878 L471.122681,477.794800 L473.119202,476.125122 L475.099060,474.434998 L477.061920,472.724670 L479.007812,470.994110 L480.936432,469.243652 L482.847565,467.473389 L484.740997,465.683533 L486.616455,463.874390 L488.473999,462.045898 L490.313232,460.198364 L492.133972,458.331909 L493.936127,456.446838 L495.719421,454.543213 L497.483612,452.621399 L499.228699,450.681335 L500.954376,448.723389 L502.660522,446.747711 L504.346893,444.754456 L506.013306,442.744019 L507.659668,440.716278 L509.285797,438.671631 L510.891479,436.610260 L512.476562,434.532349 L514.040833,432.438232 L515.584229,430.327881 L517.106506,428.201630 L518.607544,426.059692 L520.087219,423.902283 L521.545166,421.729675 L522.981567,419.541962 L524.396057,417.339417 L525.788574,415.122253 L527.158875,412.890686 L528.506836,410.644928 L529.832397,408.385376 L531.135376,406.111969 L532.415649,403.825073 L533.672974,401.524902 L534.907410,399.211731 L536.118591,396.885803 L537.306641,394.547241 L538.471252,392.196320 L539.612427,389.833313 L540.729919,387.458405 L541.823608,385.071991 L542.893555,382.674072 L543.939514,380.264954 L544.961365,377.844971 L545.958984,375.414276 L546.932312,372.973267 L547.881287,370.521973 L548.805664,368.060730 L549.705505,365.589752 L550.580688,363.109344 L551.430908,360.619843 L552.256348,358.121277 L553.056824,355.613983 L553.832214,353.098236 L554.582397,350.574280 L555.307434,348.042358 L556.007080,345.502869 L556.681335,342.955811 L557.330200,340.401550 L557.953430,337.840332 L558.551086,335.272461 L559.123047,332.698242 L559.669250,330.117767 L560.189697,327.531372 L560.684265,324.939301 L561.152954,322.341827 L561.595581,319.739380 L562.012207,317.131897 L562.402832,314.519806 L562.767273,311.903351 L563.105591,309.282806 L563.417603,306.658569 L563.703491,304.030609 L563.963013,301.399353 L564.196289,298.765076 L564.403198,296.127991 L564.583740,293.488373 L564.737915,290.846649 L564.865601,288.202789 L564.966919,285.557220 L565.041748,282.910187 L565.090088,280.261963 L565.111938,277.612915 L565.107300,274.963074 L565.076172,272.312836 L565.018555,269.662476 L564.934387,267.012238 L564.823730,264.362488 L564.686646,261.713318 L564.523010,259.065033 L564.332886,256.417938 L564.116272,253.772324 L563.873230,251.128525 L563.603760,248.486603 L563.307861,245.846909 L562.985474,243.209732 L562.636841,240.575317 L562.261719,237.943970 L561.860413,235.316025 L561.432800,232.691528 L560.978882,230.070862 L560.498779,227.454269 L559.992493,224.842041 L559.460144,222.234543 L558.901611,219.631805 L558.317139,217.034195 L557.706665,214.441986 L557.070190,211.855423 L556.407959,209.274902 L555.719849,206.700424 L555.005981,204.132385 L554.266479,201.571030 L553.501343,199.016617 L552.710632,196.469528 L551.894470,193.929779 L551.052856,191.397736 L550.185913,188.873642 L549.293762,186.357773 L548.376465,183.850494 L547.434082,181.351822 L546.466675,178.862122 L545.474365,176.381638 L544.457275,173.910629 L543.415405,171.449326 L542.348999,168.998108 L541.258057,166.556992 L540.142578,164.126312 L539.002930,161.706345 L537.838989,159.297318 L536.651001,156.899582 L535.438965,154.513168 L534.203125,152.138397 L532.943481,149.775543 L531.660217,147.424835 L530.353455,145.086578 L529.023315,142.760864 L527.669800,140.447968 L526.293213,138.148148 L524.893616,135.861633 L523.471191,133.588776 L522.026001,131.329559 L520.558105,129.084351 L519.067810,126.853333 L517.555176,124.636780 L516.020386,122.434875 L514.463684,120.247971 L512.884949,118.076050 L511.284515,115.919464 L509.662476,113.778412 L508.019012,111.653137 L506.354370,109.543915 L504.668579,107.450760 L502.961792,105.374023 L501.234222,103.313873 L499.486053,101.270523 L497.717529,99.244293 L495.928589,97.235168 L494.119568,95.243469 L492.290649,93.269409 L490.441925,91.313156 L488.573730,89.375000 L486.686035,87.454987 L484.779114,85.553345 L482.853180,83.670319 L480.908386,81.806091 L478.945007,79.960907 L476.963074,78.134781 L474.962860,76.328033 L472.944550,74.540787 L470.908325,72.773254 L468.854431,71.025604 L466.783142,69.298096 L464.694397,67.590744 L462.588623,65.903809 L460.465942,64.237427 L458.326538,62.591812 L456.170776,60.967163 L453.998627,59.363525 L451.810394,57.781143 L449.606354,56.220139 L447.386658,54.680695 L445.151611,53.163025 L442.901306,51.667175 L440.635956,50.193314 L438.355896,48.741638 L436.061218,47.312256 L433.752380,45.905426 L431.429291,44.521118 L429.092346,43.159546 L426.741760,41.820831 L424.377716,40.505127 L422.000488,39.212585 L419.610443,37.943420 L417.207520,36.697571 L414.792145,35.475250 L412.364471,34.276611 L409.924774,33.101715 L407.473419,31.950806 L405.010376,30.823822 L402.536041,29.721008 L400.050598,28.642426 L397.554352,27.588196 L395.047638,26.558472 L392.530457,25.553284 L390.003174,24.572754 L387.466064,23.616943 L384.919312,22.686066 L382.363342,21.780151 L379.798157,20.899292 L377.224060,20.043579 L374.641418,19.213043 L372.050385,18.407837 L369.451355,17.628113 L366.844360,16.873810 L364.229797,16.145081 L361.607849,15.441956 L358.978821,14.764526 L356.342987,14.112915 L353.700684,13.487183 L351.051941,12.887268 L348.397125,12.313385 L345.736511,11.765503 L343.070374,11.243744 L340.399048,10.748108 L337.722595,10.278687 L335.041382,9.835449 L332.355652,9.418579 L329.665710,9.028015 L326.971893,8.663818 L324.274261,8.326050 L321.573151,8.014709 L318.868896,7.729858 L316.161682,7.471558 L313.451935,7.239777 L310.739685,7.034576 L308.025299,6.855988 L305.309021,6.703979 L302.591156,6.578613 L299.871979,6.479919 L297.151825,6.407867 L294.430756,6.362488 L291.709167,6.343811 L288.987274,6.351776 L286.265381,6.386444 L283.543884,6.447784 L280.822754,6.535828 L278.102448,6.650513 L275.383179,6.791901 L272.665222,6.959900 L269.948975,7.154572 L267.234436,7.375854 L264.522034,7.623779 L261.812012,7.898224 L259.104614,8.199280 L256.400269,8.526825 L253.698944,8.880920 L251.001068,9.261444 L248.307022,9.668396 L245.616806,10.101776 L242.930817,10.561523 L240.249298,11.047546 L237.572525,11.559845 L234.900772,12.098389 L232.234283,12.663086 L229.573318,13.253906 L226.918137,13.870758 L224.269012,14.513672 L221.626450,15.182373 L218.990189,15.877075 L216.360748,16.597565 L213.738388,17.343811 L211.123352,18.115723 L208.515915,18.913239 L205.916306,19.736267 L203.324814,20.584717 L200.741653,21.458557 L198.167099,22.357635 L195.601395,23.281921 L193.045029,24.231232 L190.497772,25.205627 L187.960129,26.204956 L185.432312,27.229065 L182.914597,28.277893 L180.407227,29.351318 L177.910431,30.449310 L175.424454,31.571686 L172.949554,32.718353 L170.485962,33.889221 L168.034149,35.084015 L165.593903,36.302887 L163.165680,37.545593 L160.749710,38.812073 L158.346237,40.102081 L155.955505,41.415588 L153.577728,42.752441 L151.213150,44.112473 L148.862000,45.495605 L146.524506,46.901672 L144.200897,48.330551 L141.891617,49.781952 L139.596466,51.256027 L137.315857,52.752502 L135.050018,54.271179 L132.799194,55.811951 L130.563568,57.374695 L128.343384,58.959167 L126.138855,60.565308 L123.950195,62.192902 L121.777618,63.841827 L119.621521,65.511749 L117.481720,67.202820 L115.358643,68.914703 L113.252472,70.647247 L111.163422,72.400269 L109.091675,74.173615 L107.037460,75.967117 L105.000961,77.780579 L102.982391,79.613831 L100.981918,81.466690 L98.999786,83.338989 L97.036301,85.230347 L95.091354,87.140945 L93.165283,89.070404 L91.258255,91.018585 L89.370483,92.985229 L87.502136,94.970184 L85.653442,96.973236 L83.824509,98.994232 L82.015564,101.032913 L80.226761,103.089111 L78.458420,105.162415 L76.710419,107.253052 L74.983093,109.360580 L73.276581,111.484802 L71.591034,113.625504 L69.926666,115.782501 L68.283600,117.955566 L66.662018,120.144470 L65.062042,122.348999 L63.483856,124.569000 L61.927765,126.803955 L60.393600,129.054138 L58.881653,131.319061 L57.392120,133.598541 L55.925064,135.892334 L54.480682,138.200226 L53.059113,140.521988 L51.660477,142.857391 L50.284897,145.206207 L48.932541,147.568207 L47.603500,149.943146 L46.298050,152.330566 L45.016052,154.730713 L43.757751,157.143082 L42.523285,159.567474 L41.312744,162.003647 L40.126312,164.451355 L38.964020,166.910339 L37.826019,169.380371 L36.712402,171.861237 L35.623291,174.352646 L34.558838,176.854141 L33.519043,179.365936 L32.504028,181.887589 L31.513885,184.418793 L30.548767,186.959351 L29.608704,189.508972 L28.693817,192.067444 L27.804169,194.634491 L26.939880,197.209854 L26.101013,199.793304 L25.287628,202.384567 L24.499878,204.983154 L23.737732,207.589310 L23.001282,210.202515 L22.290619,212.822525 L21.605804,215.449066 L20.946899,218.081909 L20.313995,220.720764 L19.707092,223.365387 L19.126282,226.015533 L18.571625,228.670898 L18.043213,231.331024 L17.540955,233.996109 L17.065002,236.665680 L16.615387,239.339447 L16.192139,242.017136 L15.795227,244.698517 L15.424805,247.383301 L15.080872,250.071243 L14.763397,252.762070 L14.472473,255.455505 L14.208069,258.151306 L13.970276,260.848969 L13.759033,263.548676 L13.574402,266.249969 L13.416382,268.952545 L13.284973,271.656189 L13.180237,274.360565 L13.102112,277.065460 L13.050659,279.770569 L13.025818,282.475677 L13.027588,285.180481 L13.056061,287.884460 L13.111145,290.587860 L13.192810,293.290192 L13.301086,295.991180 L13.435974,298.690521 L13.597412,301.388000 L13.785400,304.083313 L13.999878,306.776215 L14.240936,309.466431 L14.508392,312.153717 L14.802307,314.837799 L15.122589,317.518158 L15.469299,320.195038 L15.842285,322.867920 L16.241577,325.536530 L16.667114,328.200653 L17.118805,330.859985 L17.596680,333.514282 L18.100586,336.163269 L18.630585,338.806702 L19.186523,341.444336 L19.768372,344.075623 L20.376068,346.700836 L21.009583,349.319458 L21.668793,351.931213 L22.353668,354.535889 L23.064087,357.133209 L23.800049,359.722900 L24.561401,362.304749 L25.348083,364.878479 L26.160034,367.443787 L26.997101,370.000305 L27.859314,372.548157 L28.746460,375.086853 L29.658569,377.616211 L30.595459,380.135986 L31.557037,382.645874 L32.543243,385.145630 L33.553955,387.635071 L34.589020,390.113892 L35.648376,392.581848 L36.731934,395.038757 L37.839417,397.484131 L38.970978,399.918152 L40.126343,402.340363 L41.305420,404.750580 L42.508118,407.148499 L43.734222,409.533936 L44.983688,411.906616 L46.256363,414.266357 L47.552109,416.612854 L48.870789,418.945984 L50.212143,421.265198 L51.576279,423.570770 L52.962952,425.862244 L54.372009,428.139374 L55.803284,430.401978 L57.256653,432.649780 L58.731964,434.882599 L60.229065,437.100220 L61.747772,439.302429 L63.287994,441.488983 L64.849487,443.659668 L66.432007,445.814117 L68.035675,447.952484 L69.660172,450.074402 L71.305328,452.179626 L72.970978,454.267944 L74.656967,456.339172 L76.363098,458.393066 L78.089203,460.429535 L79.835098,462.448303 L81.600616,464.449158 L83.385406,466.431763 L85.189636,468.396271 L87.012909,470.342316 L88.855103,472.269714 L90.715973,474.178253 L92.595367,476.067780 L94.493057,477.938110 L96.408875,479.789062 L98.342621,481.620422 L100.294098,483.432037 L102.263092,485.223755 L104.249237,486.995209 L106.252686,488.746552 L108.273087,490.477478 L110.310181,492.187805 L112.363785,493.877350 L114.433685,495.545990 L116.519684,497.193512 L118.621552,498.819824 L120.739075,500.424683 L122.872070,502.008057 L125.020065,503.569519 L127.183273,505.109283 L129.361282,506.627045 L131.553864,508.122650 L133.760773,509.595947 L135.981827,511.046844 L138.216766,512.475159 L140.465378,513.880737 L142.727417,515.263489 L145.002686,516.623230 L147.290924,517.959900 L149.591675,519.273193 L151.905182,520.563232 L154.230942,521.829773 L156.568756,523.072754 L158.918365,524.291992 L161.279556,525.487427 L163.652069,526.658875 L166.035675,527.806274 L168.430115,528.929504 L170.835144,530.028442 L173.250305,531.102905 L175.675812,532.153015 L178.111176,533.178528 L180.556168,534.179321 L183.010529,535.155396 L185.473999,536.106628 L187.946365,537.032898 L190.427338,537.934082 L192.916687,538.810242 L195.414139,539.661133 L197.919464,540.486755 L200.432159,541.286987 L202.952454,542.061768 L205.479843,542.811157 L208.014084,543.534912 L210.554901,544.233093 L213.102066,544.905518 L215.655289,545.552246 L218.214340,546.173096 L220.778931,546.768066 L223.348816,547.337158 L225.923508,547.880249 L228.503204,548.397339 L231.087433,548.888367 L233.675888,549.353271 L236.268356,549.792053 L238.864532,550.204590 L241.464188,550.590942 L244.067047,550.951050 L246.672836,551.284912 L249.281311,551.592407 L251.891937,551.873535 L254.504959,552.128357 L257.119873,552.356812 L259.736389,552.558838 L262.354279,552.734497 L264.973267,552.883789 L267.593048,553.006592 L270.213409,553.102966 L272.834076,553.172913 L275.454742,553.216431 L278.075195,553.233521 L280.694885,553.224182 L283.314056,553.188477 L285.932220,553.126343 L288.549072,553.037781 L291.164368,552.922852 L293.777863,552.781555 L296.389252,552.613953 L298.998291,552.420044 L301.604736,552.199768 L304.208282,551.953247 L306.808441,551.680603 L309.405457,551.381714 L311.998779,551.056641 L314.588196,550.705444 L317.173431,550.328247 L319.754211,549.924927 L322.330292,549.495667 L324.901367,549.040466 L327.467255,548.559326 L330.027618,548.052429 L332.582245,547.519775 L335.130646,546.961426 L337.673004,546.377319 L340.208862,545.767700 L342.737915,545.132568 L345.259949,544.471985 L347.774719,543.786011 L350.281921,543.074829 L352.781342,542.338318 L355.272705,541.576721 L357.755798,540.790039 L360.230103,539.978516 L362.695831,539.141968 L365.152527,538.280701 L367.599945,537.394714 L370.037811,536.484131 L372.465881,535.549072 L374.883942,534.589600 L377.291687,533.605713 L379.688965,532.597778 L382.075439,531.565674 L384.450958,530.509644 L386.815002,529.429871 L389.167755,528.326172 L391.508820,527.198914 L393.837952,526.048096 L396.154846,524.873901 L398.459351,523.676453 L400.751221,522.455872 L403.030182,521.212280 L405.296051,519.945801 L407.548553,518.656616 L409.787292,517.344849 L412.012451,516.010620 L414.223572,514.653931 L416.420471,513.275146 L418.602875,511.874298 L420.770630,510.451538 L422.923462,509.007080 L425.061157,507.540985 L427.183533,506.053467 L429.290375,504.544678 L431.381470,503.014709 L433.456360,501.463989 L435.515289,499.892273 L437.557800,498.299957 L439.583740,496.687134 L441.592896,495.054047 L443.585022,493.400787 L445.559937,491.727600 L447.517487,490.034607 L449.457428,488.321991 L451.379547,486.589966 L453.283508,484.838837 L455.169495,483.068481 L457.037109,481.279236 L458.886108,479.471313 L460.716431,477.644867 L462.527802,475.800079 L464.320068,473.937195 L466.093018,472.056366 L467.846497,470.157776 L469.580353,468.241669 L471.294220,466.308380 L472.988251,464.357758 L474.662109,462.390228 L476.315643,460.405945 L477.948669,458.405121 L479.561035,456.387970 L481.152588,454.354706 L482.723114,452.305542 L484.272522,450.240662 L485.800598,448.160339 L487.307251,446.064728 L488.792114,443.954285 L490.255402,441.828796 L491.696777,439.688690 L493.116089,437.534210 L494.513214,435.365601 L495.888000,433.182983 L497.240295,430.986694 L498.570007,428.776886 L499.876984,426.553833 L501.161072,424.317749 L502.422058,422.069092 L503.659973,419.807617 L504.874695,417.533813 L506.066010,415.247925 L507.233826,412.950195 L508.378052,410.640808 L509.498535,408.320038 L510.595123,405.988098 L511.667816,403.645294 L512.716431,401.291779 L513.740845,398.927856 L514.740967,396.553986 L515.716736,394.169922 L516.668091,391.776184 L517.594849,389.373016 L518.496948,386.960632 L519.374268,384.539307 L520.226807,382.109314 L521.054382,379.670837 L521.856934,377.224182 L522.634460,374.769531 L523.386719,372.307495 L524.113770,369.837738 L524.815552,367.360809 L525.491943,364.876953 L526.142883,362.386414 L526.768250,359.889465 L527.368042,357.386353 L527.942261,354.877319 L528.490723,352.362671 L529.013428,349.842590 L529.510315,347.317444 L529.981323,344.787628 L530.426514,342.252991 L530.845642,339.713989 L531.238831,337.170898 L531.606018,334.623993 L531.947083,332.073547 L532.262085,329.519775 L532.550903,326.962952 L532.813599,324.403381 L533.050049,321.841309 L533.260315,319.277222 L533.444336,316.710907 L533.602173,314.142883 L533.733643,311.573395 L533.838867,309.002716 L533.917786,306.431122 L533.970398,303.858856 L533.996704,301.286194 L533.996704,298.713379 L533.970398,296.140717 L533.917786,293.568481 L533.838867,290.997101 L533.733643,288.426422 L533.602112,285.856934 L533.444336,283.288910 L533.260315,280.722595 L533.050049,278.158264 L532.813538,275.596191 L532.550903,273.036621 L532.262024,270.479797 L531.947021,267.926056 L531.605957,265.375824 L531.238770,262.828918 L530.845581,260.285828 L530.426453,257.746857 L529.981323,255.212189 L529.510254,252.682159 L529.013306,250.156982 L528.490601,247.636932 L527.942139,245.122253 L527.367981,242.613251 L526.768188,240.110138 L526.142822,237.613419 L525.491882,235.122894 L524.815552,232.639023 L524.113770,230.162094 L523.386658,227.692352 L522.634338,225.230042 L521.856812,222.775421 L521.054199,220.328766 L520.226685,217.890289 L519.374146,215.460266 L518.496887,213.039185 L517.594727,210.626801 L516.667969,208.223633 L515.716675,205.829895 L514.740845,203.445862 L513.740723,201.071747 L512.716248,198.707825 L511.667633,196.354340 L510.594971,194.011505 L509.498322,191.679581 L508.377960,189.359024 L507.233765,187.049652 L506.065918,184.751892 L504.874603,182.466003 L503.659912,180.192215 L502.421936,177.930756 L501.160858,175.681885 L499.876770,173.445801 L498.569824,171.222748 L497.240112,169.012970 L495.887756,166.816666 L494.513123,164.634262 L493.115967,162.465637 L491.696686,160.311157 L490.255310,158.171066 L488.792053,156.045578 L487.307007,153.934921 L485.800354,151.839325 L484.272247,149.758987 L482.722839,147.694138 L481.152283,145.644958 L479.560913,143.611893 L477.948547,141.594757 L476.315521,139.593933 L474.661987,137.609650 L472.988129,135.642105 L471.294098,133.691498 L469.580078,131.758026 L467.846222,129.841904 L466.092743,127.943344 L464.319763,126.062500 L462.527496,124.199615 L460.716309,122.355011 L458.886017,120.528564 L457.036987,118.720612 L455.169373,116.931396 L453.283386,115.161041 L451.379211,113.409760 L449.457092,111.677719 L447.517151,109.965118 L445.559631,108.272125 L443.584686,106.598938 L441.592743,104.945847 L439.583618,103.312744 L437.557678,101.699921 L435.515137,100.107574 L433.456238,98.535904 L431.381104,96.985016 L429.290039,95.455093 L427.183197,93.946274 L425.060822,92.458771 L422.923096,90.992691 L420.770264,89.548218 L418.602722,88.125595 L416.420288,86.724762 L414.223389,85.345947 L412.012268,83.989334 L409.787109,82.655029 L407.548187,81.343216 L405.295654,80.053986 L403.029785,78.787506 L400.750854,77.543930 L398.458984,76.323334 L396.154694,75.126007 L393.837769,73.951813 L391.508667,72.801025 L389.167603,71.673737 L386.814819,70.570068 L384.450562,69.490173 L382.075073,68.434113 L379.688568,67.402069 L377.291321,66.394058 L374.883545,65.410278 L372.465485,64.450790 L370.037628,63.515793 L367.599792,62.605209 L365.152374,61.719208 L362.695679,60.857941 L360.229919,60.021423 L357.755402,59.209808 L355.272308,58.423157 L352.780945,57.661560 L350.281494,56.925079 L347.774292,56.213852 L345.259766,55.527985 L342.737732,54.867371 L340.208679,54.232239 L337.672821,53.622604 L335.130463,53.038559 L332.581848,52.480194 L330.027191,51.947495 L327.466827,51.440567 L324.900940,50.959488 L322.329865,50.504288 L319.754028,50.075043 L317.173248,49.671753 L314.588013,49.294510 L311.998596,48.943329 L309.405273,48.618256 L306.808258,48.319366 L304.207855,48.046646 L301.604309,47.800171 L298.997864,47.579956 L296.388824,47.386032 L293.777435,47.218430 L291.164215,47.077133 L288.548889,46.962219 L285.932037,46.873688 L283.313873,46.811523 L280.694702,46.775787 L278.074768,46.766464 L275.454315,46.783569 L272.833618,46.827087 L270.212982,46.897064 L267.592621,46.993454 L264.973083,47.116257 L262.354095,47.265488 L259.736206,47.441147 L257.119690,47.643204 L254.504776,47.871658 L251.891754,48.126465 L249.280884,48.407639 L246.672409,48.715164 L244.066620,49.048981 L241.463760,49.409103 L238.864105,49.795441 L236.268173,50.207993 L233.675720,50.646759 L231.087250,51.111664 L228.503021,51.602692 L225.923325,52.119781 L223.348404,52.662903 L220.778503,53.231995 L218.213913,53.826996 L215.654861,54.447861 L213.101639,55.094574 L210.554733,55.766968 L208.013901,56.465103 L205.479660,57.188904 L202.952271,57.938248 L200.431976,58.713104 L197.919052,59.513367 L195.413727,60.338989 L192.916260,61.189896 L190.426926,62.066040 L187.945953,62.967255 L185.473602,63.893509 L183.010361,64.844635 L180.556000,65.820709 L178.111008,66.821533 L175.675644,67.847076 L173.250137,68.897156 L170.834747,69.971710 L168.429718,71.070694 L166.035278,72.193924 L163.651672,73.341309 L161.279175,74.512787 L158.918213,75.708084 L156.568588,76.927322 L154.230789,78.170288 L151.905014,79.436859 L149.591522,80.726929 L147.290527,82.040359 L145.002304,83.376999 L142.727051,84.736771 L140.465012,86.119507 L138.216400,87.525085 L135.981461,88.953400 L133.760620,90.404144 L131.553711,91.877457 L129.361115,93.373047 L127.183136,94.890823 L125.019913,96.430588 L122.871704,97.992218 L120.738724,99.575562 L118.621185,101.180450 L116.519318,102.806747 L114.433350,104.454285 L112.363647,106.122772 L110.310028,107.812332 L108.272934,109.522644 L106.252548,111.253555 L104.249100,113.004929 L102.262756,114.776535 L100.293762,116.568253 L98.342285,118.379883 L96.408539,120.211243 L94.492737,122.062195 L92.595215,123.932343 L90.715836,125.821869 L88.854965,127.730423 L87.012787,129.657822 L85.189514,131.603867 L83.385284,133.568390 L81.600327,135.551178 L79.834808,137.552032 L78.088898,139.570801 L76.362793,141.607239 L74.656693,143.661179 L72.970871,145.732208 L71.305206,147.820526 L69.660065,149.925751 L68.035568,152.047653 L66.431900,154.186035 L64.849228,156.340698 L63.287720,158.511383 L61.747513,160.697952 L60.228790,162.900146 L58.731720,165.117783 L57.256546,167.350388 L55.803177,169.598206 L54.371887,171.860779 L52.962845,174.137909 L51.576187,176.429382 L50.212036,178.734955 L48.870560,181.054398 L47.551880,183.387497 L46.256149,185.734039 L44.983475,188.093765 L43.734009,190.466461 L42.508026,192.851654 L41.305359,195.249603 L40.126282,197.659790 L38.970886,200.082016 L37.839355,202.516052 L36.731750,204.961639 L35.648193,207.418549 L34.588837,209.886536 L33.553772,212.365356 L32.543091,214.854782 L31.556976,217.354309 L30.595398,219.864197 L29.658508,222.383957 L28.746429,224.913315 L27.859222,227.452042 L26.997040,229.999878 L26.159912,232.556610 L25.347961,235.121964 L24.561279,237.695679 L23.799927,240.277512 L23.063965,242.867218 L22.353607,245.464279 L21.668762,248.068939 L21.009521,250.680725 L20.376038,253.299347 L19.768311,255.924561 L19.186462,258.556091 L18.630493,261.193726 L18.100525,263.837158 L17.596588,266.486145 L17.118713,269.140442 L16.667053,271.799530 L16.241547,274.463654 L15.842224,277.132263 L15.469238,279.805176 L15.122559,282.482056 L14.802246,285.162659 L14.508362,287.846741 L14.240845,290.533997 L13.999878,293.224243 L13.785339,295.917145 L13.597382,298.612457 L13.435944,301.309662 L13.301086,304.009033 L13.192810,306.709991 L13.111115,309.412323 L13.056061,312.115723 L13.027618,314.819977 L13.025818,317.524780 L13.050659,320.229858 L13.102112,322.934998 L13.180237,325.639893 L13.285004,328.344025 L13.416382,331.047638 L13.574402,333.750214 L13.759033,336.451508 L13.970276,339.151245 L14.208130,341.849121 L14.472534,344.544922 L14.763458,347.238373 L15.080933,349.929199 L15.424896,352.617126 L15.795288,355.301941 L16.192139,357.983063 L16.615417,360.660767 L17.065063,363.334503 L17.541016,366.004089 L18.043243,368.669159 L18.571716,371.329529 L19.126373,373.984924 L19.707214,376.635071 L20.314087,379.279663 L20.947021,381.918518 L21.605835,384.551117 L22.290649,387.177673 L23.001312,389.797668 L23.737793,392.410889 L24.499939,395.017029 L25.287750,397.615845 L26.101074,400.206879 L26.940033,402.790588 L27.804260,405.365723 L28.693970,407.932983 L29.608765,410.491211 L30.548920,413.041077 L31.513977,415.581360 L32.504181,418.112854 L33.519104,420.634216 L34.559021,423.146271 L35.623444,425.647766 L36.712463,428.138916 L37.826202,430.620026 L38.964111,433.089844 L40.126495,435.549072 L41.312836,437.996521 L42.523499,440.432922 L43.757843,442.857086 L45.016266,445.269684 L46.298126,447.669617 L47.603577,450.057037 L48.932755,452.432190 L50.285004,454.793976 L51.660721,457.143005 L53.059204,459.478180 L54.480927,461.800171 L55.925171,464.107819 L57.392334,466.401855 L58.881775,468.681091 L60.393860,470.946228 L61.927872,473.196198 L63.483978,475.431152 L65.062317,477.651337 L66.662109,479.855682 L68.283875,482.044800 L69.926788,484.217651 L71.591309,486.374847 L73.276703,488.515350 L74.983368,490.639771 L76.710556,492.747101 L78.458725,494.837921 L80.227051,496.911224 L82.015686,498.967224 L83.824829,501.006104 L85.653564,503.026886 L87.502457,505.030151 L89.370621,507.014893 L91.258560,508.981750 L93.165405,510.929718 L95.091675,512.859375 L97.036453,514.769775 L98.999908,516.661133 L100.982239,518.533630 L102.982529,520.386292 L105.001297,522.219727 L107.037598,524.033020 L109.092010,525.826660 L111.163544,527.599854 L113.252808,529.353027 L115.358795,531.085449 L117.482086,532.797485 L119.621674,534.488403 L121.777771,536.158264 L123.950562,537.807373 L126.139008,539.434814 L128.343750,541.041077 L130.563721,542.625427 L132.799545,544.188293 L135.050171,545.728943 L137.316223,547.247742 L139.596619,548.744019 L141.891998,550.218262 L144.201294,551.669678 L146.524673,553.098389 L148.862396,554.504639 L151.213318,555.887573 L153.578125,557.247803 L155.955673,558.584473 L158.346634,559.898132 L160.749878,561.188049 L163.166077,562.454590 L165.594086,563.697205 L168.034561,564.916138 L170.486374,566.110962 L172.949738,567.281738 L175.424866,568.428528 L177.910599,569.550781 L180.407639,570.648865 L182.914780,571.722168 L185.432739,572.771118 L187.960297,573.795166 L190.498199,574.794556 L193.045212,575.768860 L195.601578,576.718140 L198.167526,577.642517 L200.741837,578.541504 L203.325226,579.415405 L205.916504,580.263794 L208.516357,581.086914 L211.123535,581.884338 L213.738815,582.656311 L216.360931,583.402466 L218.990616,584.123047 L221.626617,584.817627 L224.269196,585.486389 L226.918579,586.129333 L229.573502,586.746155 L232.234711,587.337036 L234.900955,587.901611 L237.572968,588.440247 L240.249481,588.952515 L242.931244,589.438599 L245.616989,589.898254 L248.307465,590.331665 L251.001389,590.738586 L253.699005,591.119141 L256.400574,591.473206 L259.104797,591.800781 L261.812439,592.101807 L264.522217,592.376221 L267.234894,592.624146 L269.949158,592.845459 L272.665771,593.040100 L275.383484,593.208130 L278.103027,593.349487 L280.823090,593.464233 L283.543945,593.552246 L286.265839,593.613586 L288.987457,593.648193 L291.709595,593.656189 L294.430969,593.637512 L297.152283,593.592163 L299.872284,593.520081 L302.591736,593.421326 L305.309357,593.296021 L308.025330,593.144043 L310.739990,592.965393 L313.451996,592.760193 L316.162109,592.528381 L318.869080,592.270142 L321.573608,591.985229 L324.274445,591.673950 L326.972351,591.336121 L329.666016,590.971924 L332.356232,590.581360 L335.041687,590.164490 L337.722656,589.721313 L340.399384,589.251831 L343.070557,588.756226 L345.736938,588.234375 L348.397308,587.686584 L351.052368,587.112610 L353.700867,586.512817 L356.343536,585.886963 L358.979156,585.235352 L361.608398,584.557861 L364.230103,583.854858 L366.844421,583.126160 L369.451660,582.371826 L372.050537,581.592102 L374.641846,580.786804 L377.224243,579.956421 L379.798584,579.100586 L382.363525,578.219788 L384.919861,577.313721 L387.466370,576.382935 L390.003235,575.427246 L392.530762,574.446655 L395.047699,573.441528 L397.554779,572.411621 L400.050781,571.357544 L402.536438,570.278809 L405.010559,569.176086 L407.473816,568.049011 L409.925049,566.898132 L412.364990,565.723145 L414.792419,564.524597 L417.207581,563.302429 L419.610718,562.056458 L422.000671,560.787292 L424.378113,559.494629 L426.741913,558.179077 L429.092743,556.840271 L431.429474,555.478821 L433.752747,554.094360 L436.061523,552.687561 L438.356384,551.258057 L440.636230,549.806519 L442.901337,548.332764 L445.151886,546.836792 L447.386780,545.319214 L449.606720,543.779602 L451.810547,542.218750 L453.998962,540.636230 L456.170898,539.032715 L458.326996,537.407837 L460.466187,535.762390 L462.589081,534.095825 L464.694672,532.409058 L466.783173,530.701904 L468.854767,528.974121 L470.908478,527.226624 L472.944885,525.458923 L474.963013,523.671875 L476.963409,521.864868 L478.945160,520.038940 L480.908813,518.193481 L482.853394,516.329468 L484.779175,514.446594 L486.686249,512.544800 L488.573761,510.624939 L490.442261,508.686523 L492.290771,506.730469 L494.119904,504.756195 L495.928741,502.764679 L497.717804,500.755371 L499.486267,498.729248 L501.234619,496.685699 L502.961975,494.625732 L504.668579,492.549194 L506.354584,490.455872 L508.019135,488.346741 L509.662750,486.221222 L511.284607,484.080383 L512.885254,481.923584 L514.463745,479.751892 L516.020752,477.564667 L517.555420,475.362976 L519.068115,473.146179 L520.558289,470.915405 L522.026001,468.670410 L523.471313,466.410950 L524.893677,464.138214 L526.293457,461.851471 L527.669922,459.551880 L529.023499,457.238770 L530.353577,454.913269 L531.660461,452.574677 L532.943604,450.224182 L534.203369,447.861084 L535.439148,445.486572 L536.651062,443.100372 L537.839172,440.702271 L539.002991,438.293488 L540.142822,435.873291 L541.258118,433.442841 L542.349182,431.001465 L543.415527,428.550385 L544.457458,426.088867 L545.474487,423.618073 L546.466675,421.137817 L547.434204,418.647888 L548.376526,416.149445 L549.293945,413.641785 L550.186035,411.126160 L551.052979,408.601868 L551.894531,406.070068 L552.710815,403.530029 L553.501404,400.983093 L554.266602,398.428406 L555.006104,395.867310 L555.719849,393.299500 L556.408081,390.724792 L557.070251,388.144409 L557.706787,385.557587 L558.317139,382.965637 L558.901733,380.367767 L559.460205,377.765259 L559.992615,375.157410 L560.498840,372.545410 L560.979004,369.928589 L561.432861,367.308167 L561.860474,364.683929 L562.261841,362.055603 L562.636841,359.424500 L562.985596,356.789825 L563.307861,354.152893 L563.603760,351.512970 L563.873230,348.871277 L564.116333,346.227112 L564.332886,343.581726 L564.523010,340.934906 L564.686646,338.286377 L564.823792,335.637451 L564.934448,332.987335 L565.018555,330.337341 L565.076172,327.686707 L565.107300,325.036743 L565.111938,322.386658 L565.090088,319.737732 L565.041687,317.089233 L564.966919,314.442474 L564.865601,311.797150 L564.737915,309.153046 L564.583740,306.511444 L564.403198,303.871582 L564.196289,301.234741 L563.963013,298.600220 L563.703491,295.969208 L563.417603,293.341003 L563.105530,290.716888 L562.767212,288.096100 L562.402771,285.479889 L562.012207,282.868042 L561.595520,280.260315 L561.152893,277.657990 L560.684204,275.060272 L560.189697,272.468445 L559.669189,269.881805 L559.122986,267.301575 L558.550964,264.726990 L557.953369,262.159363 L557.330017,259.597900 L556.681274,257.043884 L556.007080,254.497070 L555.307312,251.957214 L554.582397,249.425552 L553.832092,246.901352 L553.056763,244.385834 L552.256226,241.878326 L551.430908,239.379974 L550.580444,236.890121 L549.705444,234.409958 L548.805664,231.939240 L547.881165,229.477737 L546.932251,227.026672 L545.958862,224.585327 L544.961304,222.154877 L543.939331,219.734634 L542.893494,217.325775 L541.823486,214.927612 L540.729797,212.541321 L539.612183,210.166199 L538.471130,207.803406 L537.306641,205.452698 L536.118469,203.113892 L534.907288,200.788132 L533.672791,198.474716 L532.415527,196.174774 L531.135132,193.887650 L529.832275,191.614471 L528.506592,189.354584 L527.158691,187.109070 L525.788269,184.877289 L524.395935,182.660339 L522.981567,180.457977 L521.545044,178.270050 L520.087097,176.097565 L518.607300,173.939941 L517.106384,171.798218 L515.583923,169.671768 L514.040710,167.561615 L512.476196,165.467209 L510.891296,163.389496 L509.285767,161.328308 L507.659485,159.283478 L506.013245,157.255966 L504.346619,155.245209 L502.660400,153.252151 L500.954102,151.276276 L499.228577,149.318512 L497.483337,147.378281 L495.719208,145.456558 L493.935730,143.552765 L492.133789,141.667847 L490.313171,139.801605 L488.473755,137.953888 L486.616455,136.125580 L484.740692,134.316162 L482.847412,132.526489 L480.936096,130.756073 L479.007690,129.005768 L477.061584,127.275085 L475.098816,125.564819 L473.118774,123.874527 L471.122437,122.204987 L469.109650,120.556091 L467.080200,118.927643 L465.035095,117.320465 L462.973755,115.734070 L460.897217,114.169220 L458.804840,112.625488 L456.697693,111.103638 L454.575195,109.603195 L452.438293,108.124908 L450.286469,106.668350 L448.120758,105.234207 L445.940948,103.822372 L443.746887,102.432709 L441.539581,101.065872 L439.318451,99.721481 L437.084564,98.400177 L434.837311,97.101593 L432.577759,95.826370 L430.305298,94.574127 L428.021027,93.345444 L425.724731,92.140259 L423.416260,90.958405 L421.096619,89.800476 L418.765289,88.666138 L416.423340,87.555969 L414.070099,86.469604 L411.706757,85.407608 L409.332642,84.369629 L406.948853,83.356232 L404.554779,82.367081 L402.151550,81.402634 L399.739014,80.462830 L397.316895,79.547607 L394.886383,78.657349 L392.446808,77.791840 L389.999329,76.951508 L387.543304,76.136047 L385.079895,75.345917 L382.608429,74.580841 L380.130066,73.841248 L377.644196,73.126892 L375.151917,72.438095 L372.653107,71.774811 L370.147491,71.136978 L367.636292,70.524902 L365.118805,69.938385 L362.596283,69.377747 L360.067963,68.842804 L357.535126,68.333847 L354.997040,67.850677 L352.454926,67.393524 L349.908081,66.962311 L347.357758,66.557190 L344.803711,66.178162 L342.245728,65.825165 L339.685028,65.498352 L337.120911,65.197662 L334.554626,64.923218 L331.985443,64.674973 L329.414612,64.452972 L326.841400,64.257233 L324.267090,64.087799 L321.691406,63.944656 L319.114166,63.827789 L316.536591,63.737259 L313.957977,63.673065 L311.379578,63.635162 L308.800659,63.623596 L306.222443,63.638367 L303.644287,63.679474 L301.067352,63.746857 L298.490967,63.840576 L295.916382,63.960556 L293.343353,64.106812 L290.771667,64.279373 L288.202545,64.478119 L285.635315,64.703125 L283.071167,64.954285 L280.509399,65.231659 L277.951294,65.535095 L275.396088,65.864716 L272.845032,66.220306 L270.297455,66.602020 L267.754517,67.009628 L265.216034,67.443176 L262.681793,67.902710 L260.153015,68.387970 L257.628967,68.899139 L255.110901,69.435944 L252.598114,69.998520 L250.091797,70.586639 L247.591278,71.200409 L245.097748,71.839554 L242.610992,72.504120 L240.130798,73.194214 L237.658356,73.909424 L235.192993,74.649963 L232.735901,75.415527 L230.286377,76.206299 L227.845627,77.021881 L225.412949,77.862518 L222.989532,78.727753 L220.574707,79.617889 L218.169647,80.532471 L215.774109,81.471573 L213.387909,82.435287 L211.012192,83.423126 L208.646301,84.435394 L206.291382,85.471588 L203.946777,86.531982 L201.613617,87.616058 L199.291260,88.724152 L196.980835,89.855713 L194.681686,91.011047 L192.394913,92.189575 L190.120331,93.391449 L187.857758,94.616730 L185.608276,95.864838 L183.371231,97.136169 L181.147736,98.429993 L178.937164,99.746811 L176.740601,101.085876 L174.557404,102.447617 L172.388641,103.831345 L170.233734,105.237457 L168.093689,106.665314 L165.968353,108.114960 L163.857483,109.586578 L161.762177,111.079437 L159.681793,112.593979 L157.617371,114.129440 L155.568329,115.686249 L153.535645,117.263672 L151.518768,118.862152 L149.518677,120.480896 L147.535187,122.120056 L145.568115,123.779785 L143.618439,125.459244 L141.685608,127.158951 L139.770538,128.878052 L137.872742,130.617050 L135.993088,132.375092 L134.131073,134.152634 L132.287628,135.948883 L130.462189,137.764282 L128.655670,139.598022 L126.867920,141.450180 L125.098755,143.320984 L123.349091,145.209488 L121.618362,147.116241 L119.907440,149.040314 L118.215881,150.982269 L116.544464,152.941132 L114.892761,154.917480 L113.261536,156.910339 L111.650360,158.920258 L110.059998,160.946259 L108.490311,162.988556 L106.941193,165.047333 L105.413361,167.121552 L103.906403,169.211823 L102.421051,171.317108 L100.956924,173.438049 L99.514664,175.573563 L98.093933,177.724274 L96.695404,179.889130 L95.318665,182.068756 L93.964417,184.262085 L92.632507,186.469299 L91.322845,188.690643 L90.036072,190.924973 L88.771820,193.172974 L87.530701,195.433502 L86.312378,197.707245 L85.117462,199.993073 L83.945587,202.291626 L82.797333,204.601822 L81.672607,206.923828 L80.571304,209.257858 L79.493988,211.602783 L78.440323,213.959290 L77.410858,216.326202 L76.405289,218.704193 L75.424103,221.092117 L74.467041,223.490631 L73.534546,225.898590 L72.626404,228.316681 L71.743042,230.743698 L70.884338,233.179871 L70.050262,235.625427 L69.241241,238.079178 L68.457001,240.541809 L67.697968,243.012115 L66.963928,245.490814 L66.255203,247.976685 L65.571655,250.470459 L64.913589,252.970871 L64.280807,255.478668 L63.673645,257.992615 L63.092041,260.512939 L62.535965,263.039917 L62.005676,265.572235 L61.501007,268.110626 L61.022278,270.653931 L60.569290,273.202759 L60.142288,275.755981 L59.741165,278.314240 L59.366119,280.876312 L59.017090,283.442444 L58.694092,286.012848 L58.397278,288.586273 L58.126556,291.163483 L57.882050,293.743164 L57.663757,296.326111 L57.471710,298.911011 L57.305939,301.498627 L57.166428,304.087677 L57.053238,306.678925 L56.966400,309.271088 L56.905884,311.864380 L56.871704,314.459076 L56.863907,317.053925 L56.882446,319.649597 L56.927368,322.244873 L56.998657,324.840485 L57.096313,327.435150 L57.220337,330.029633 L57.370697,332.622650 L57.547455,335.214905 L57.750473,337.805206 L57.979828,340.393738 L58.235519,342.980743 L58.517426,345.564972 L58.825653,348.147125 L59.160065,350.726013 L59.520721,353.302277 L59.907501,355.874725 L60.320465,358.444061 L60.759460,361.009033 L61.224609,363.570404 L61.715668,366.126862 L62.232727,368.678680 L62.775787,371.226074 L63.344635,373.767822 L63.939423,376.304626 L64.559860,378.835266 L65.206146,381.360413 L65.877945,383.878906 L66.575485,386.391418 L67.298401,388.896698 L68.046783,391.395020 L68.820709,393.886597 L69.619781,396.370239 L70.444275,398.846558 L71.293762,401.314453 L72.168518,403.774536 L73.068054,406.225708 L73.992722,408.668579 L74.942047,411.101990 L75.916260,413.526611 L76.914948,415.941254 L77.938202,418.346191 L78.986084,420.741577 L80.058105,423.126282 L81.154633,425.500977 L82.275040,427.864502 L83.419724,430.217529 L84.588104,432.558868 L85.780548,434.889221 L86.996429,437.207458 L88.236176,439.514221 L89.499115,441.808380 L90.785370,444.090179 L92.095139,446.359741 L93.427719,448.616028 L94.783539,450.859680 L96.161896,453.089600 L97.563248,455.306366 L98.986877,457.508911 L100.433197,459.697906 L101.901535,461.872253 L103.392029,464.032166 L104.904770,466.177795 L106.439087,468.308167 L107.995407,470.423798 L109.572983,472.523712 L111.172241,474.608459 L112.792419,476.677063 L114.434021,478.730103 L116.096207,480.766571 L117.779480,482.787018 L119.483032,484.790527 L121.207001,486.777161 L122.951569,488.747223 L124.715881,490.699646 L126.500473,492.635071 L128.304459,494.552490 L130.128357,496.452454 L131.971283,498.334076 L133.833801,500.197845 L135.714966,502.042847 L137.615356,503.869629 L139.534012,505.677277 L141.471161,507.465973 L143.426941,509.235870 L145.400452,510.986115 L147.392212,512.717163 L149.401306,514.428223 L151.428284,516.119690 L153.472168,517.790771 L155.533569,519.442017 L157.611465,521.072571 L159.706451,522.682861 L161.817535,524.272095 L163.944901,525.840454 L166.088745,527.388062 L168.248047,528.914185 L170.423401,530.419250 L172.613785,531.902466 L174.819824,533.364258 L177.040436,534.803955 L179.276260,536.221924 L181.526245,537.617554 L183.790558,538.990845 L186.069412,540.342041 L188.361755,541.670349 L190.668213,542.976196 L192.987656,544.259033 L195.320770,545.519104 L197.666428,546.755859 L200.025299,547.969543 L202.396240,549.159668 L204.779922,550.326538 L207.175217,551.469543 L209.582321,552.588867 L212.001465,553.684509 L214.431519,554.755981 L216.873123,555.803589 L219.325119,556.826782 L221.788223,557.825867 L224.261230,558.800415 L226.744843,559.750610 L229.237885,560.675964 L231.741028,561.576843 L234.253113,562.452698 L236.774353,563.303711 L239.304962,564.129822 L241.843750,564.930725 L244.391418,565.706604 L246.946747,566.457092 L249.510468,567.182373 L252.081329,567.882080 L254.660095,568.556519 L257.245483,569.205200 L259.838257,569.828369 L262.437164,570.425720 L265.042450,570.997314 L267.654327,571.543152 L270.271576,572.063049 L272.894897,572.557007 L275.523041,573.024902 L278.156799,573.466858 L280.794830,573.882568 L283.437958,574.272217 L286.084839,574.635620 L288.735779,574.972717 L291.390991,575.283569 L294.049194,575.568115 L296.711121,575.826294 L299.375549,576.058044 L302.043213,576.263428 L304.712799,576.442261 L307.385101,576.594666 L310.058807,576.720581 L312.734680,576.819946 L315.411438,576.892822 L318.089325,576.939087 L320.768616,576.958862 L323.447968,576.952026 L326.128174,576.918640 L328.807922,576.858643 L331.488007,576.772095 L334.167114,576.658936 L336.846008,576.519226 L339.523376,576.352966 L342.200012,576.160095 L344.874634,575.940735 L347.547455,575.694824 L350.218750,575.422424 L352.887207,575.123535 L355.553589,574.798096 L358.216614,574.446350 L360.877045,574.068054 L363.533600,573.663513 L366.187042,573.232483 L368.836060,572.775269 L371.480927,572.291748 L374.121887,571.781921 L376.757629,571.246033 L379.388977,570.683838 L382.014587,570.095703 L384.635223,569.481445 L387.249634,568.841309 L389.858582,568.175049 L392.460785,567.483154 L395.057007,566.765259 L397.645935,566.021729 L400.227844,565.252563 L402.803009,564.457642 L405.370148,563.637390 L407.929993,562.791504 L410.481323,561.920349 L413.024841,561.023804 L415.559326,560.102173 L418.085510,559.155212 L420.602173,558.183411 L423.110046,557.186523 L425.607880,556.164917 L428.095947,555.118530 L430.574463,554.047363 L433.042175,552.951782 L435.499878,551.831482 L437.946350,550.687134 L440.382233,549.518250 L442.806458,548.325439 L445.219604,547.108398 L447.620605,545.867676 L450.010040,544.602966 L452.386841,543.314758 L454.751221,542.003052 L457.103363,540.667603 L459.442108,539.309143 L461.768188,537.927246 L464.080475,536.522583 L466.379578,535.094727 L468.664398,533.644348 L470.935608,532.171082 L473.192078,530.675598 L475.434082,529.157776 L477.661774,527.617432 L479.874084,526.055359 L482.071655,524.471069 L484.253418,522.865234 L486.419983,521.237549 L488.570343,519.588745 L490.705048,517.918335 L492.823120,516.227051 L494.925110,514.514526 L497.010071,512.781494 L499.078156,511.027802 L501.129547,509.253326 L503.163300,507.458893 L505.179932,505.643982 L507.178497,503.809479 L509.159576,501.954834 L511.122192,500.080933 L513.066895,498.187256 L514.992798,496.274719 L516.900391,494.342712 L518.788818,492.392242 L520.658203,490.423096 L522.508667,488.435120 L524.339417,486.429169 L526.150940,484.404724 L527.942322,482.362793 L529.714111,480.302734 L531.465454,478.225555 L533.196899,476.130707 L534.907471,474.019104 L536.597778,471.890198 L538.266968,469.744995 L539.915161,467.583313 L541.542603,465.404938 L543.148376,463.210907 L544.733032,461.000580 L546.295776,458.775024 L547.837036,456.533630 L549.356079,454.277435 L550.853394,452.005829 L552.328186,449.719849 L553.780640,447.419342 L555.210815,445.104065 L556.618103,442.775116 L558.002869,440.431824 L559.364380,438.075348 L560.703186,435.704987 L562.018555,433.321869 L563.310791,430.925354 L564.579346,428.516541 L565.824524,426.094788 L567.045776,423.661194 L568.243225,421.215637 L569.416992,418.757782 L570.566406,416.288849 L571.691895,413.808105 L572.792908,411.316833 L573.869751,408.814209 L574.921875,406.301453 L575.949524,403.777924 L576.952393,401.244751 L577.930542,398.701263 L578.883606,396.148621 L579.811707,393.586670 L580.714905,391.015106 L581.592712,388.435181 L582.445435,385.846130 L583.272644,383.249237 L584.074585,380.643738 L584.850830,378.030914 L585.601685,375.409973 L586.326660,372.782196 L587.025940,370.147339 L587.699585,367.505157 L588.347168,364.856903 L588.968933,362.201843 L589.564575,359.541229 L590.134277,356.874298 L590.677795,354.202362 L591.195190,351.524628 L591.686279,348.842377 L592.151245,346.154877 L592.589722,343.463379 L593.001892,340.767670 L593.387695,338.067474 L593.747070,335.364075 L594.079956,332.656738 L594.386292,329.946716 L594.666138,327.233276 L594.919434,324.517700 L595.146118,321.799225 L595.346191,319.079132 L595.519592,316.356659 L595.666321,313.633118 L595.786438,310.908264 L595.879883,308.181824 L595.946594,305.455109 L595.986633,302.727325 z" fill="none" stroke="black" />
</svg>
