<svg xmlns="http://www.w3.org/2000/svg" width="500" height="500">
<path d="M500.000000,250.000000 L499.578522,250.010193 L498.317719,250.081360 L496.228516,250.273712 L493.328735,250.646088 L489.643463,251.255096 L485.204102,252.154495 L480.048584,253.394608 L474.220703,255.021545 L467.769653,257.076874 L460.749634,259.596802 L453.219055,262.612030 L445.240265,266.147156 L436.878510,270.220367 L428.201447,274.843262 L419.278381,280.020599 L410.179565,285.750183 L400.975464,292.022888 L391.735931,298.822601 L382.529572,306.126495 L373.422882,313.905121 L364.479797,322.122620 L355.760773,330.737305 L347.322357,339.701721 L339.216461,348.963348 L331.489960,358.465179 L324.184052,368.146118 L317.334167,377.941742 L310.969238,387.784790 L305.111664,397.606079 L299.777100,407.335175 L294.974274,416.900879 L290.704956,426.232361 L286.964111,435.259583 L283.739716,443.914246 L281.013275,452.130249 L278.759888,459.844696 L276.948639,466.998413 L275.542999,473.536438 L274.501160,479.408875 L273.776886,484.571167 L273.319611,488.984650 L273.075409,492.617035 L272.987549,495.442749 L272.997101,497.442993 L273.043823,498.606079 L273.066559,498.927704 L273.004395,498.410706 L272.797028,497.065155 L272.385712,494.908234 L271.713898,491.964111 L270.727783,488.263519 L269.377258,483.843567 L267.616211,478.747345 L265.403320,473.023224 L262.702454,466.724701 L259.483154,459.909424 L255.721039,452.638977 L251.398117,444.977875 L246.503052,436.993011 L241.031418,428.753082 L234.985672,420.327606 L228.375290,411.786255 L221.216705,403.198273 L213.533127,394.631500 L205.354446,386.151947 L196.716843,377.822693 L187.662537,369.703644 L178.239441,361.850800 L168.500427,354.315338 L158.503052,347.143555 L148.309036,340.376251 L137.983261,334.048035 L127.593491,328.187469 L117.209511,322.816376 L106.902328,317.949921 L96.743790,313.596375 L86.805283,309.756958 L77.157486,306.426239 L67.869469,303.591766 L59.007763,301.234619 L50.636040,299.329590 L42.814285,297.845337 L35.597889,296.744904 L29.037758,295.986420 L23.178921,295.523071 L18.060802,295.304138 L13.716489,295.275543 L10.172308,295.380219 L7.447749,295.559021 L5.555243,295.751587 L4.499912,295.896606 L4.279673,295.933014 L4.885167,295.800415 L6.300002,295.440033 L8.500785,294.795135 L11.457547,293.812042 L15.133962,292.440521 L19.487709,290.634583 L24.471193,288.352905 L30.031666,285.559418 L36.112278,282.223724 L42.652218,278.321625 L49.587639,273.835266 L56.852474,268.753510 L64.378815,263.072021 L72.097763,256.793579 L79.940498,249.927841 L87.838486,242.491516 L95.724464,234.508179 L103.533356,226.007874 L111.202538,217.027298 L118.672935,207.608871 L125.889297,197.800903 L132.800903,187.656830 L139.362213,177.234467 L145.533081,166.596024 L151.279480,155.806778 L156.573471,144.935013 L161.393784,134.051132 L165.725861,123.226540 L169.562027,112.533569 L172.901474,102.044342 L175.750275,91.829971 L178.121292,81.960083 L180.033966,72.501984 L181.513992,63.519836 L182.593140,55.074245 L183.308746,47.221302 L183.703125,40.012478 L183.823471,33.493683 L183.720810,27.704805 L183.449646,22.679775 L183.067230,18.445566 L182.633087,15.022367 L182.207855,12.423367 L181.852966,10.654420 L181.629883,9.714156 L181.599030,9.593993 L181.819443,10.278315 L182.347992,11.744425 L183.238480,13.963133 L184.541122,16.898914 L186.302155,20.510197 L188.562927,24.750128 L191.359375,29.566854 L194.722000,34.904049 L198.675034,40.701912 L203.236145,46.897278 L208.416458,53.424835 L214.220261,60.217468 L220.644531,67.207039 L227.679489,74.325455 L235.308411,81.504944 L243.507294,88.679016 L252.245926,95.783264 L261.487610,102.756027 L271.189209,109.538582 L281.302368,116.076607 L291.773590,122.320190 L302.544189,128.224228 L313.551971,133.749420 L324.731232,138.862396 L336.013031,143.535858 L347.326721,147.749084 L358.600739,151.488388 L369.761749,154.746475 L380.737366,157.523163 L391.455994,159.825241 L401.847778,161.666153 L411.844299,163.065659 L421.381165,164.050217 L430.397461,164.652084 L438.835785,164.908859 L446.644531,164.863647 L453.777374,164.563950 L460.193146,164.061127 L465.857819,163.410278 L470.743713,162.669113 L474.829559,161.897156 L478.101837,161.155777 L480.553986,160.506668 L482.186432,160.011322 L483.007263,159.730774 L483.031311,159.724213 L482.280487,160.048676 L480.783264,160.758224 L478.574493,161.903336 L475.694763,163.530289 L472.190430,165.680573 L468.112518,168.390366 L463.516418,171.690201 L458.461395,175.604218 L453.009735,180.150375 L447.225861,185.339752 L441.176422,191.176422 L434.928497,197.657562 L428.549469,204.773346 L422.106506,212.506653 L415.665131,220.833755 L409.289062,229.724075 L403.039246,239.140869 L396.973572,249.040771 L391.145691,259.375214 L385.604797,270.090485 L380.395203,281.127655 L375.555450,292.424225 L371.118317,303.914246 L367.110321,315.528351 L363.551453,327.195770 L360.454865,338.844177 L357.827057,350.400208 L355.667542,361.791016 L353.968933,372.944641 L352.717316,383.790161 L351.892059,394.259521 L351.466217,404.287537 L351.407043,413.812347 L351.676208,422.776703 L352.230133,431.128082 L353.020905,438.819641 L353.996429,445.809753 L355.101257,452.063629 L356.277283,457.552979 L357.464294,462.256073 L358.600677,466.158630 L359.624390,469.253418 L360.473236,471.540344 L361.086121,473.026611 L361.403442,473.726440 L361.367767,473.661102 L360.924774,472.858307 L360.023743,471.352173 L358.618042,469.182617 L356.666077,466.395203 L354.131378,463.040192 L350.983276,459.172272 L347.197418,454.849976 L342.755798,450.134766 L337.647125,445.090363 L331.867340,439.782532 L325.419128,434.277710 L318.312347,428.642456 L310.564026,422.943146 L302.198059,417.244598 L293.244720,411.609589 L283.741394,406.098663 L273.731049,400.768555 L263.262329,395.672272 L252.389725,390.858368 L241.171570,386.370239 L229.671036,382.245850 L217.954025,378.517029 L206.090103,375.209656 L194.150635,372.343079 L182.207886,369.929626 L170.335632,367.975067 L158.607224,366.478333 L147.094727,365.431305 L135.869446,364.819244 L125.000107,364.621094 L114.551994,364.809143 L104.587494,365.349945 L95.164490,366.204651 L86.335648,367.329010 L78.148636,368.674561 L70.645485,370.188629 L63.861340,371.815125 L57.825268,373.495514 L52.559540,375.169037 L48.078865,376.773468 L44.391232,378.246429 L41.497379,379.525299 L39.390503,380.548248 L38.057209,381.255463 L37.476940,381.589172 L37.622467,381.494476 L38.460552,380.920349 L39.951771,379.820038 L42.051392,378.151245 L44.709892,375.877472 L47.873184,372.967896 L51.483555,369.397522 L55.480331,365.148499 L59.800415,360.209106 L64.378815,354.575073 L69.149956,348.249237 L74.047935,341.240997 L79.007179,333.567383 L83.963646,325.252350 L88.855293,316.325989 L93.622414,306.825592 L98.208961,296.794342 L102.562798,286.280762 L106.636047,275.339142 L110.386131,264.028534 L113.775925,252.411453 L116.774185,240.554489 L119.355827,228.527313 L121.502472,216.400955 L123.202293,204.248367 L124.450294,192.143585 L125.248459,180.159653 L125.605461,168.369446 L125.536682,156.844528 L125.064224,145.653458 L124.216141,134.862305 L123.026726,124.533951 L121.535477,114.725906 L119.787231,105.491875 L117.831306,96.880135 L115.720779,88.932304 L113.512383,81.684708 L111.265480,75.166908 L109.041214,69.401085 L106.902275,64.402985 L104.912010,60.181095 L103.133247,56.736366 L101.628258,54.062946 L100.457657,52.147865 L99.679512,50.971119 L99.349174,50.506248 L99.518150,50.720440 L100.233734,51.575123 L101.538361,53.026184 L103.468910,55.024654 L106.057198,57.517170 L109.327751,60.446888 L113.298920,63.753620 L117.983131,67.374992 L123.384445,71.246994 L129.500305,75.304497 L136.321976,79.482407 L143.832184,83.716095 L152.007050,87.941986 L160.817215,92.098907 L170.224579,96.127960 L180.187241,99.973946 L190.656128,103.585274 L201.576294,106.914940 L212.890182,109.921265 L224.534500,112.567741 L236.441788,114.823830 L248.544022,116.665451 L260.769257,118.074867 L273.043518,119.040909 L285.294434,119.559555 L297.447906,119.633408 L309.430084,119.271889 L321.170868,118.491234 L332.600586,117.314163 L343.652161,115.769547 L354.264130,113.892273 L364.377625,111.722786 L373.938141,109.306427 L382.898499,106.693176 L391.215790,103.937057 L398.852905,101.095261 L405.781067,98.227692 L411.976929,95.396492 L417.423981,92.664734 L422.114105,90.096283 L426.045471,87.754936 L429.222992,85.703224 L431.659882,84.002342 L433.375153,82.711098 L434.394775,81.885307 L434.751007,81.576927 L434.481873,81.833748 L433.630890,82.698730 L432.246277,84.209412 L430.380829,86.397392 L428.090759,89.288261 L425.435516,92.900841 L422.476959,97.247063 L419.278259,102.332207 L415.903809,108.154076 L412.418243,114.703239 L408.885254,121.963722 L405.367554,129.912003 L401.926025,138.517670 L398.618378,147.744583 L395.499359,157.549667 L392.619751,167.883957 L390.025574,178.694214 L387.758057,189.921432 L385.852814,201.502350 L384.339447,213.371292 L383.241547,225.458542 L382.575928,237.692184 L382.352936,249.999969 L382.575989,262.307770 L383.241577,274.541382 L384.339508,286.628632 L385.852905,298.497559 L387.758179,310.078461 L390.025726,321.305695 L392.619904,332.115936 L395.499542,342.450195 L398.618591,352.255280 L401.926086,361.481903 L405.367798,370.087830 L408.885468,378.036102 L412.418365,385.296387 L415.904053,391.845734 L419.278503,397.667572 L422.477112,402.752563 L425.435791,407.098938 L428.091064,410.711487 L430.381012,413.602295 L432.246521,415.790314 L433.631134,417.300995 L434.482117,418.165985 L434.751282,418.422791 L434.395050,418.114380 L433.375397,417.288605 L431.660126,415.997345 L429.223236,414.296478 L426.045532,412.244843 L422.114319,409.903412 L417.424164,407.334991 L411.976959,404.603333 L405.781219,401.772034 L398.853058,398.904510 L391.215759,396.062775 L382.898621,393.306610 L373.938263,390.693359 L364.377563,388.277069 L354.264221,386.107574 L343.652252,384.230286 L332.600494,382.685730 L321.170929,381.508636 L309.430176,380.727997 L297.447815,380.366547 L285.294495,380.440399 L273.043976,380.959045 L260.769135,381.925171 L248.544098,383.334564 L236.442261,385.176147 L224.534409,387.432343 L212.890274,390.078857 L201.576752,393.085052 L190.656052,396.414856 L180.187363,400.026215 L170.225021,403.872070 L160.817184,407.901215 L152.007187,412.058197 L143.832184,416.284088 L136.321991,420.517761 L129.500488,424.695740 L123.384506,428.753174 L117.983192,432.625183 L113.299164,436.246643 L109.327835,439.553284 L106.057304,442.483002 L103.469193,444.975616 L101.538498,446.973969 L100.233879,448.425018 L99.518311,449.279694 L99.349335,449.493896 L99.679695,449.028992 L100.457832,447.852264 L101.628441,445.937134 L103.133423,443.263702 L104.912086,439.819061 L106.902481,435.597076 L109.041389,430.598938 L111.265556,424.833313 L113.512558,418.315247 L115.720970,411.067657 L117.831383,403.120087 L119.787369,394.508057 L121.535629,385.274017 L123.026787,375.466278 L124.216255,365.137604 L125.064316,354.346466 L125.536797,343.155609 L125.605507,331.630432 L125.248505,319.840210 L124.450356,307.856598 L123.202309,295.751526 L121.502472,283.598938 L119.355858,271.472870 L116.774139,259.445435 L113.775848,247.588440 L110.386116,235.971664 L106.635956,224.660751 L102.562622,213.719101 L98.208931,203.205841 L93.622299,193.174377 L88.855042,183.673920 L83.963585,174.747849 L79.007011,166.432602 L74.047668,158.759003 L69.149864,151.750977 L64.378647,145.424973 L59.800117,139.790985 L55.480228,134.851761 L51.483303,130.602768 L47.872990,127.032516 L44.709728,124.122650 L42.051167,121.849060 L39.951561,120.180351 L38.460403,119.079796 L37.622257,118.505898 L37.476719,118.411217 L38.057102,118.744728 L39.390327,119.452103 L41.497112,120.475098 L44.391186,121.753769 L48.078716,123.226852 L52.559258,124.831291 L57.825268,126.504677 L63.861221,128.185211 L70.645180,129.811707 L78.148666,131.325638 L86.335556,132.671280 L95.164177,133.795639 L104.587570,134.650192 L114.552010,135.191147 L124.999794,135.379150 L135.869553,135.180817 L147.094788,134.568863 L158.606888,133.521851 L170.335754,132.024979 L182.207947,130.070465 L194.150299,127.657059 L206.090210,124.790298 L217.953842,121.483040 L229.670670,117.754250 L241.171661,113.629684 L252.389557,109.141617 L263.262238,104.327682 L273.731110,99.231331 L283.741302,93.901337 L293.244568,88.390274 L302.198059,82.755264 L310.563934,77.056808 L318.312134,71.357384 L325.419128,65.722137 L331.867218,60.217396 L337.646912,54.909454 L342.755707,49.865082 L347.197266,45.149937 L350.983002,40.827515 L354.131256,36.959633 L356.665924,33.604710 L358.617737,30.817181 L360.023560,28.647720 L360.924591,27.141602 L361.367401,26.338726 L361.403229,26.273445 L361.085938,26.973337 L360.472900,28.459518 L359.624146,30.746565 L358.600494,33.841282 L357.463928,37.743793 L356.277039,42.447121 L355.101105,47.936291 L353.996094,54.190159 L353.020691,61.180531 L352.230011,68.871826 L351.675903,77.223274 L351.406799,86.187454 L351.466125,95.712540 L351.891815,105.740456 L352.717102,116.209625 L353.968872,127.055466 L355.667358,138.208954 L357.826874,149.599548 L360.454834,161.155914 L363.551361,172.804184 L367.110199,184.471405 L371.118317,196.085876 L375.555450,207.575699 L380.395111,218.872055 L385.604889,229.909576 L391.145752,240.624664 L396.973541,250.958954 L403.039337,260.859192 L409.289185,270.275757 L415.665131,279.165955 L422.106628,287.493347 L428.549713,295.226562 L434.928528,302.342102 L441.176605,308.823517 L447.226166,314.660065 L453.009796,319.849304 L458.461578,324.395660 L463.516693,328.309570 L468.112640,331.609283 L472.190582,334.319305 L475.694824,336.469543 L478.574585,338.096313 L480.783356,339.241608 L482.280548,339.951172 L483.031464,340.275452 L483.007355,340.269043 L482.186523,339.988495 L480.554047,339.493042 L478.101837,338.844025 L474.829620,338.102661 L470.743744,337.330597 L465.857819,336.589508 L460.193207,335.938721 L453.777374,335.435822 L446.644470,335.136169 L438.835815,335.091003 L430.397430,335.347717 L421.381073,335.949646 L411.844360,336.934204 L401.847748,338.333679 L391.455902,340.174683 L380.737183,342.476685 L369.761871,345.253479 L358.600891,348.511444 L347.326813,352.250885 L336.013000,356.464142 L324.730865,361.137726 L313.551758,366.250702 L302.544373,371.775696 L291.773773,377.679779 L281.302399,383.923401 L271.189240,390.461487 L261.487305,397.244232 L252.245850,404.216949 L243.507462,411.320862 L235.308609,418.495056 L227.679520,425.674622 L220.644653,432.793091 L214.220139,439.782837 L208.416550,446.575470 L203.236282,453.102661 L198.675278,459.298126 L194.722092,465.096069 L191.359619,470.433350 L188.562943,475.250061 L186.302429,479.490051 L184.541260,483.101105 L183.238724,486.036926 L182.348099,488.255615 L181.819763,489.721832 L181.599167,490.406036 L181.630127,490.285919 L181.853088,489.345612 L182.208115,487.576721 L182.633224,484.977600 L183.067581,481.554443 L183.449768,477.320068 L183.721039,472.295349 L183.823883,466.506561 L183.703415,459.987579 L183.308838,452.778564 L182.593399,444.925659 L181.514069,436.479797 L180.034195,427.498260 L178.121643,418.040161 L175.750427,408.170044 L172.901459,397.955444 L169.562103,387.466187 L165.725754,376.773010 L161.393982,365.949188 L156.573730,355.065247 L151.279541,344.193268 L145.532974,333.403809 L139.362091,322.765350 L132.800613,312.342773 L125.889450,302.199341 L118.673103,292.391449 L111.202538,282.972809 L103.533134,273.991943 L95.724228,265.491760 L87.838707,257.509003 L79.940605,250.072418 L72.097824,243.206802 L64.378677,236.928131 L56.852222,231.246445 L49.587383,226.164825 L42.652355,221.678848 L36.112324,217.776535 L30.031681,214.441025 L24.471060,211.647354 L19.487560,209.365479 L15.133739,207.559723 L11.457578,206.188431 L8.500785,205.205139 L6.299913,204.560455 L4.885092,204.199860 L4.279628,204.067123 L4.499883,204.103729 L5.555138,204.248840 L7.447690,204.441223 L10.172218,204.620239 L13.716504,204.724731 L18.060966,204.695938 L23.179085,204.477219 L29.037519,204.013992 L35.597862,203.255295 L42.814209,202.155060 L50.636204,200.670593 L59.008091,198.765350 L67.869797,196.408325 L77.157227,193.574112 L86.805222,190.243179 L96.743721,186.403900 L106.902512,182.050125 L117.209900,177.183456 L127.593193,171.812759 L137.982941,165.952240 L148.308960,159.623840 L158.502991,152.856522 L168.500565,145.684570 L178.239807,138.148926 L187.662277,130.296539 L196.716492,122.177513 L205.354340,113.848091 L213.532959,105.368462 L221.216751,96.801537 L228.375565,88.213341 L234.985428,79.672562 L241.031052,71.247009 L246.502899,63.006924 L251.397812,55.022045 L255.720947,47.360794 L259.483246,40.090218 L262.702271,33.275410 L265.402954,26.976793 L267.616028,21.252588 L269.376862,16.156315 L270.727570,11.736334 L271.713470,8.035734 L272.385498,5.091772 L272.796631,2.934843 L273.004150,1.589239 L273.066101,1.072228 L273.043518,1.393899 L272.996674,2.557054 L272.987335,4.557207 L273.075012,7.382899 L273.319397,11.015400 L273.776489,15.428901 L274.500977,20.591318 L275.542603,26.463360 L276.948456,33.001526 L278.759552,40.155231 L281.013123,47.869877 L283.739441,56.085915 L286.964050,64.740715 L290.704620,73.767365 L294.974121,83.099022 L299.776855,92.664764 L305.111603,102.394028 L310.969116,112.215355 L317.334290,122.058647 L324.183746,131.853531 L331.489807,141.534714 L339.216278,151.036545 L347.322449,160.298401 L355.760864,169.262741 L364.480133,177.877609 L373.422607,186.094543 L382.529510,193.873398 L391.735901,201.177216 L400.975647,207.977142 L410.179779,214.249710 L419.278748,219.979462 L428.201233,225.156372 L436.878510,229.779465 L445.240326,233.852554 L453.219238,237.387863 L460.749817,240.402924 L467.769501,242.922958 L474.220612,244.978088 L480.048615,246.605225 L485.204163,247.845123 L489.643585,248.744705 L493.328857,249.353516 L496.228455,249.726105 L498.317719,249.918289 L499.578522,249.989609 L500.000000,249.999619" fill="none" stroke="black" />
</svg>
