<svg xmlns="http://www.w3.org/2000/svg" width="500" height="500">
<path d="M500.000000,250.000000 L499.578522,249.989807 L498.317719,249.918655 L496.228516,249.726288 L493.328735,249.353897 L489.643463,248.744904 L485.204102,247.845505 L480.048584,246.605392 L474.220703,244.978455 L467.769653,242.923141 L460.749634,240.403198 L453.219055,237.387955 L445.240265,233.852829 L436.878510,229.779633 L428.201447,225.156723 L419.278381,219.979385 L410.179565,214.249817 L400.975464,207.977127 L391.735931,201.177383 L382.529572,193.873489 L373.422882,186.094879 L364.479797,177.877365 L355.760773,169.262711 L347.322357,160.298309 L339.216461,151.036652 L331.489960,141.534836 L324.184052,131.853882 L317.334167,122.058273 L310.969238,112.215233 L305.111664,102.393929 L299.777100,92.664856 L294.974274,83.099113 L290.704956,73.767632 L286.964111,64.740417 L283.739716,56.085781 L281.013275,47.869759 L278.759888,40.155293 L276.948639,33.001602 L275.542999,26.463552 L274.501160,20.591125 L273.776886,15.428856 L273.319611,11.015370 L273.075409,7.382959 L272.987549,4.557237 L272.997101,2.557009 L273.043823,1.393899 L273.066559,1.072288 L273.004395,1.589283 L272.797028,2.934843 L272.385712,5.091757 L271.713898,8.035898 L270.727783,11.736483 L269.377258,16.156420 L267.616211,21.252663 L265.403320,26.976780 L262.702454,33.275322 L259.483154,40.090561 L255.721039,47.361031 L251.398117,55.022137 L246.503052,63.006981 L241.031418,71.246910 L234.985672,79.672394 L228.375290,88.213760 L221.216705,96.801727 L213.533127,105.368477 L205.354446,113.848061 L196.716843,122.177299 L187.662537,130.296356 L178.239441,138.149216 L168.500427,145.684662 L158.503052,152.856445 L148.309036,159.623764 L137.983261,165.951950 L127.593491,171.812515 L117.209511,177.183609 L106.902328,182.050079 L96.743790,186.403625 L86.805283,190.243027 L77.157486,193.573792 L67.869469,196.408249 L59.007763,198.765366 L50.636040,200.670441 L42.814285,202.154663 L35.597889,203.255081 L29.037758,204.013580 L23.178921,204.476929 L18.060802,204.695847 L13.716489,204.724442 L10.172308,204.619797 L7.447749,204.440994 L5.555243,204.248428 L4.499912,204.103394 L4.279673,204.066986 L4.885167,204.199585 L6.300002,204.559982 L8.500785,205.204880 L11.457547,206.187958 L15.133962,207.559464 L19.487709,209.365417 L24.471193,211.647110 L30.031666,214.440598 L36.112278,217.776276 L42.652218,221.678375 L49.587639,226.164734 L56.852474,231.246521 L64.378815,236.927979 L72.097763,243.206406 L79.940498,250.072159 L87.838486,257.508484 L95.724464,265.491852 L103.533356,273.992126 L111.202538,282.972687 L118.672935,292.391113 L125.889297,302.199097 L132.800903,312.343170 L139.362213,322.765533 L145.533081,333.403961 L151.279480,344.193207 L156.573471,355.065002 L161.393784,365.948853 L165.725861,376.773468 L169.562027,387.466431 L172.901474,397.955658 L175.750275,408.170044 L178.121292,418.039917 L180.033966,427.498016 L181.513992,436.480164 L182.593140,444.925751 L183.308746,452.778687 L183.703125,459.987518 L183.823471,466.506317 L183.720810,472.295197 L183.449646,477.320221 L183.067230,481.554443 L182.633087,484.977631 L182.207855,487.576630 L181.852966,489.345581 L181.629883,490.285858 L181.599030,490.406006 L181.819443,489.721680 L182.347992,488.255554 L183.238480,486.036865 L184.541122,483.101074 L186.302155,479.489807 L188.562927,475.249878 L191.359375,470.433136 L194.722000,465.095947 L198.675034,459.298065 L203.236145,453.102722 L208.416458,446.575165 L214.220261,439.782532 L220.644531,432.792969 L227.679489,425.674561 L235.308411,418.495056 L243.507294,411.320984 L252.245926,404.216736 L261.487610,397.243988 L271.189209,390.461426 L281.302368,383.923401 L291.773590,377.679810 L302.544189,371.775787 L313.551971,366.250580 L324.731232,361.137604 L336.013031,356.464142 L347.326721,352.250946 L358.600739,348.511597 L369.761749,345.253540 L380.737366,342.476837 L391.455994,340.174774 L401.847778,338.333832 L411.844299,336.934326 L421.381165,335.949768 L430.397461,335.347931 L438.835785,335.091156 L446.644531,335.136353 L453.777374,335.436035 L460.193146,335.938873 L465.857819,336.589722 L470.743713,337.330872 L474.829559,338.102844 L478.101837,338.844238 L480.553986,339.493347 L482.186432,339.988678 L483.007263,340.269196 L483.031311,340.275787 L482.280487,339.951324 L480.783264,339.241760 L478.574493,338.096680 L475.694763,336.469696 L472.190430,334.319427 L468.112518,331.609650 L463.516418,328.309814 L458.461395,324.395782 L453.009735,319.849609 L447.225861,314.660248 L441.176422,308.823578 L434.928497,302.342438 L428.549469,295.226624 L422.106506,287.493347 L415.665131,279.166260 L409.289062,270.275909 L403.039246,260.859131 L396.973572,250.959213 L391.145691,240.624771 L385.604797,229.909500 L380.395203,218.872330 L375.555450,207.575775 L371.118317,196.085770 L367.110321,184.471634 L363.551453,172.804230 L360.454865,161.155807 L357.827057,149.599792 L355.667542,138.208984 L353.968933,127.055359 L352.717316,116.209831 L351.892059,105.740486 L351.466217,95.712456 L351.407043,86.187675 L351.676208,77.223312 L352.230133,68.871902 L353.020905,61.180367 L353.996429,54.190247 L355.101257,47.936378 L356.277283,42.447029 L357.464294,37.743912 L358.600677,33.841370 L359.624390,30.746578 L360.473236,28.459682 L361.086121,26.973396 L361.403442,26.273548 L361.367767,26.338905 L360.924774,27.141689 L360.023743,28.647840 L358.618042,30.817390 L356.666077,33.604801 L354.131378,36.959797 L350.983276,40.827721 L347.197418,45.150013 L342.755798,49.865246 L337.647125,54.909645 L331.867340,60.217468 L325.419128,65.722305 L318.312347,71.357567 L310.564026,77.056854 L302.198059,82.755417 L293.244720,88.390411 L283.741394,93.901352 L273.731049,99.231453 L263.262329,104.327751 L252.389725,109.141617 L241.171570,113.629761 L229.671036,117.754173 L217.954025,121.482986 L206.090103,124.790344 L194.150635,127.656921 L182.207886,130.070389 L170.335632,132.024933 L158.607224,133.521667 L147.094727,134.568695 L135.869446,135.180740 L125.000107,135.378906 L114.551994,135.190842 L104.587494,134.650070 L95.164490,133.795349 L86.335648,132.671021 L78.148636,131.325455 L70.645485,129.811371 L63.861340,128.184891 L57.825268,126.504478 L52.559540,124.830948 L48.078865,123.226509 L44.391232,121.753555 L41.497379,120.474709 L39.390503,119.451775 L38.057209,118.744537 L37.476940,118.410828 L37.622467,118.505554 L38.460552,119.079651 L39.951771,120.179955 L42.051392,121.848747 L44.709892,124.122528 L47.873184,127.032120 L51.483555,130.602493 L55.480331,134.851517 L59.800415,139.790909 L64.378815,145.424927 L69.149956,151.750778 L74.047935,158.759003 L79.007179,166.432602 L83.963646,174.747650 L88.855293,183.674011 L93.622414,193.174423 L98.208961,203.205643 L102.562798,213.719254 L106.636047,224.660843 L110.386131,235.971466 L113.775925,247.588547 L116.774185,259.445526 L119.355827,271.472687 L121.502472,283.599060 L123.202293,295.751617 L124.450294,307.856415 L125.248459,319.840332 L125.605461,331.630554 L125.536682,343.155487 L125.064224,354.346558 L124.216141,365.137695 L123.026726,375.466034 L121.535477,385.274109 L119.787231,394.508118 L117.831306,403.119873 L115.720779,411.067688 L113.512383,418.315277 L111.265480,424.833099 L109.041214,430.598907 L106.902275,435.597015 L104.912010,439.818909 L103.133247,443.263641 L101.628258,445.937042 L100.457657,447.852142 L99.679512,449.028870 L99.349174,449.493774 L99.518150,449.279541 L100.233734,448.424866 L101.538361,446.973816 L103.468910,444.975342 L106.057198,442.482819 L109.327751,439.553101 L113.298920,436.246399 L117.983131,432.625000 L123.384445,428.753021 L129.500305,424.695496 L136.321976,420.517609 L143.832184,416.283905 L152.007050,412.057983 L160.817215,407.901123 L170.224579,403.872040 L180.187241,400.026062 L190.656128,396.414734 L201.576294,393.085052 L212.890182,390.078735 L224.534500,387.432281 L236.441788,385.176178 L248.544022,383.334534 L260.769257,381.925140 L273.043518,380.959106 L285.294434,380.440430 L297.447906,380.366608 L309.430084,380.728119 L321.170868,381.508759 L332.600586,382.685852 L343.652161,384.230438 L354.264130,386.107758 L364.377625,388.277222 L373.938141,390.693573 L382.898499,393.306824 L391.215790,396.062927 L398.852905,398.904755 L405.781067,401.772308 L411.976929,404.603516 L417.423981,407.335266 L422.114105,409.903717 L426.045471,412.245056 L429.222992,414.296783 L431.659882,415.997650 L433.375153,417.288910 L434.394775,418.114685 L434.751007,418.423065 L434.481873,418.166260 L433.630890,417.301270 L432.246277,415.790588 L430.380829,413.602600 L428.090759,410.711731 L425.435516,407.099152 L422.476959,402.752930 L419.278259,397.667786 L415.903809,391.845947 L412.418243,385.296753 L408.885254,378.036255 L405.367554,370.087982 L401.926025,361.482330 L398.618378,352.255402 L395.499359,342.450317 L392.619751,332.116028 L390.025574,321.305786 L387.758057,310.078552 L385.852814,298.497650 L384.339447,286.628723 L383.241547,274.541473 L382.575928,262.307831 L382.352936,250.000031 L382.575989,237.692230 L383.241577,225.458618 L384.339508,213.371368 L385.852905,201.502426 L387.758179,189.921524 L390.025726,178.694305 L392.619904,167.884064 L395.499542,157.549789 L398.618591,147.744720 L401.926086,138.518097 L405.367798,129.912170 L408.885468,121.963890 L412.418365,114.703629 L415.904053,108.154266 L419.278503,102.332413 L422.477112,97.247421 L425.435791,92.901070 L428.091064,89.288506 L430.381012,86.397720 L432.246521,84.209679 L433.631134,82.699013 L434.482117,81.834030 L434.751282,81.577209 L434.395050,81.885605 L433.375397,82.711411 L431.660126,84.002647 L429.223236,85.703522 L426.045532,87.755142 L422.114319,90.096596 L417.424164,92.665016 L411.976959,95.396667 L405.781219,98.227966 L398.853058,101.095512 L391.215759,103.937241 L382.898621,106.693405 L373.938263,109.306648 L364.377563,111.722916 L354.264221,113.892448 L343.652252,115.769714 L332.600494,117.314262 L321.170929,118.491364 L309.430176,119.271996 L297.447815,119.633469 L285.294495,119.559616 L273.043976,119.040970 L260.769135,118.074837 L248.544098,116.665436 L236.442261,114.823845 L224.534409,112.567665 L212.890274,109.921173 L201.576752,106.914955 L190.656052,103.585152 L180.187363,99.973801 L170.225021,96.127945 L160.817184,92.098755 L152.007187,87.941795 L143.832184,83.715912 L136.321991,79.482231 L129.500488,75.304253 L123.384506,71.246834 L117.983192,67.374809 L113.299164,63.753365 L109.327835,60.446709 L106.057304,57.516991 L103.469193,55.024399 L101.538498,53.026020 L100.233879,51.574974 L99.518311,50.720303 L99.349335,50.506115 L99.679695,50.971001 L100.457832,52.147762 L101.628441,54.062874 L103.133423,56.736290 L104.912086,60.180931 L106.902481,64.402939 L109.041389,69.401054 L111.265556,75.166718 L113.512558,81.684738 L115.720970,88.932350 L117.831383,96.879898 L119.787369,105.491920 L121.535629,114.725975 L123.026787,124.533714 L124.216255,134.862396 L125.064316,145.653549 L125.536797,156.844360 L125.605507,168.369568 L125.248505,180.159775 L124.450356,192.143417 L123.202309,204.248489 L121.502472,216.401077 L119.355858,228.527130 L116.774139,240.554581 L113.775848,252.411545 L110.386116,264.028351 L106.635956,275.339233 L102.562622,286.280914 L98.208931,296.794189 L93.622299,306.825623 L88.855042,316.326080 L83.963585,325.252136 L79.007011,333.567383 L74.047668,341.240997 L69.149864,348.249023 L64.378647,354.575043 L59.800117,360.209015 L55.480228,365.148254 L51.483303,369.397217 L47.872990,372.967468 L44.709728,375.877350 L42.051167,378.150940 L39.951561,379.819641 L38.460403,380.920197 L37.622257,381.494110 L37.476719,381.588776 L38.057102,381.255280 L39.390327,380.547882 L41.497112,379.524872 L44.391186,378.246246 L48.078716,376.773163 L52.559258,375.168701 L57.825268,373.495331 L63.861221,371.814789 L70.645180,370.188293 L78.148666,368.674377 L86.335556,367.328705 L95.164177,366.204376 L104.587570,365.349823 L114.552010,364.808868 L124.999794,364.620850 L135.869553,364.819183 L147.094788,365.431122 L158.606888,366.478149 L170.335754,367.975037 L182.207947,369.929565 L194.150299,372.342957 L206.090210,375.209686 L217.953842,378.516968 L229.670670,382.245758 L241.171661,386.370300 L252.389557,390.858368 L263.262238,395.672333 L273.731110,400.768677 L283.741302,406.098663 L293.244568,411.609711 L302.198059,417.244720 L310.563934,422.943176 L318.312134,428.642639 L325.419128,434.277863 L331.867218,439.782623 L337.646912,445.090546 L342.755707,450.134918 L347.197266,454.850067 L350.983002,459.172485 L354.131256,463.040344 L356.665924,466.395294 L358.617737,469.182831 L360.023560,471.352264 L360.924591,472.858398 L361.367401,473.661285 L361.403229,473.726562 L361.085938,473.026672 L360.472900,471.540466 L359.624146,469.253418 L358.600494,466.158722 L357.463928,462.256195 L356.277039,457.552887 L355.101105,452.063721 L353.996094,445.809845 L353.020691,438.819458 L352.230011,431.128174 L351.675903,422.776733 L351.406799,413.812561 L351.466125,404.287445 L351.891815,394.259552 L352.717102,383.790375 L353.968872,372.944519 L355.667358,361.791046 L357.826874,350.400452 L360.454834,338.844086 L363.551361,327.195831 L367.110199,315.528595 L371.118317,303.914124 L375.555450,292.424286 L380.395111,281.127930 L385.604889,270.090393 L391.145752,259.375336 L396.973541,249.041046 L403.039337,239.140823 L409.289185,229.724228 L415.665131,220.834045 L422.106628,212.506653 L428.549713,204.773422 L434.928528,197.657867 L441.176605,191.176468 L447.226166,185.339935 L453.009796,180.150696 L458.461578,175.604340 L463.516693,171.690430 L468.112640,168.390717 L472.190582,165.680710 L475.694824,163.530472 L478.574585,161.903687 L480.783356,160.758408 L482.280548,160.048843 L483.031464,159.724564 L483.007355,159.730972 L482.186523,160.011505 L480.554047,160.506958 L478.101837,161.155975 L474.829620,161.897339 L470.743744,162.669388 L465.857819,163.410492 L460.193207,164.061279 L453.777374,164.564194 L446.644470,164.863815 L438.835815,164.908997 L430.397430,164.652283 L421.381073,164.050339 L411.844360,163.065796 L401.847748,161.666321 L391.455902,159.825317 L380.737183,157.523300 L369.761871,154.746552 L358.600891,151.488525 L347.326813,147.749146 L336.013000,143.535873 L324.730865,138.862289 L313.551758,133.749329 L302.544373,128.224319 L291.773773,122.320251 L281.302399,116.076591 L271.189240,109.538528 L261.487305,102.755753 L252.245850,95.783043 L243.507462,88.679123 L235.308609,81.504959 L227.679520,74.325371 L220.644653,67.206902 L214.220139,60.217171 L208.416550,53.424522 L203.236282,46.897350 L198.675278,40.701866 L194.722092,34.903957 L191.359619,29.566660 L188.562943,24.749920 L186.302429,20.509958 L184.541260,16.898901 L183.238724,13.963074 L182.348099,11.744365 L181.819763,10.278180 L181.599167,9.593964 L181.630127,9.714082 L181.853088,10.654390 L182.208115,12.423292 L182.633224,15.022397 L183.067581,18.445551 L183.449768,22.679924 L183.721039,27.704641 L183.823883,33.493431 L183.703415,40.012421 L183.308838,47.221420 L182.593399,55.074318 L181.514069,63.520195 L180.034195,72.501747 L178.121643,81.959846 L175.750427,91.829956 L172.901459,102.044556 L169.562103,112.533791 L165.725754,123.227013 L161.393982,134.050812 L156.573730,144.934738 L151.279541,155.806717 L145.532974,166.596207 L139.362091,177.234650 L132.800613,187.657257 L125.889450,197.800659 L118.673103,207.608551 L111.202538,217.027191 L103.533134,226.008057 L95.724228,234.508240 L87.838707,242.491013 L79.940605,249.927582 L72.097824,256.793213 L64.378677,263.071869 L56.852222,268.753571 L49.587383,273.835175 L42.652355,278.321136 L36.112324,282.223450 L30.031681,285.558960 L24.471060,288.352661 L19.487560,290.634521 L15.133739,292.440277 L11.457578,293.811554 L8.500785,294.794861 L6.299913,295.439545 L4.885092,295.800140 L4.279628,295.932892 L4.499883,295.896301 L5.555138,295.751160 L7.447690,295.558777 L10.172218,295.379761 L13.716504,295.275269 L18.060966,295.304047 L23.179085,295.522766 L29.037519,295.986023 L35.597862,296.744690 L42.814209,297.844940 L50.636204,299.329407 L59.008091,301.234619 L67.869797,303.591675 L77.157227,306.425873 L86.805222,309.756805 L96.743721,313.596100 L106.902512,317.949890 L117.209900,322.816559 L127.593193,328.187225 L137.982941,334.047760 L148.308960,340.376129 L158.502991,347.143463 L168.500565,354.315430 L178.239807,361.851105 L187.662277,369.703461 L196.716492,377.822479 L205.354340,386.151917 L213.532959,394.631531 L221.216751,403.198486 L228.375565,411.786682 L234.985428,420.327423 L241.031052,428.752991 L246.502899,436.993073 L251.397812,444.977936 L255.720947,452.639221 L259.483246,459.909790 L262.702271,466.724579 L265.402954,473.023193 L267.616028,478.747437 L269.376862,483.843689 L270.727570,488.263672 L271.713470,491.964294 L272.385498,494.908203 L272.796631,497.065155 L273.004150,498.410767 L273.066101,498.927765 L273.043518,498.606079 L272.996674,497.442963 L272.987335,495.442810 L273.075012,492.617096 L273.319397,488.984589 L273.776489,484.571106 L274.500977,479.408691 L275.542603,473.536652 L276.948456,466.998444 L278.759552,459.844757 L281.013123,452.130127 L283.739441,443.914093 L286.964050,435.259277 L290.704620,426.232635 L294.974121,416.901001 L299.776855,407.335236 L305.111603,397.605957 L310.969116,387.784668 L317.334290,377.941376 L324.183746,368.146484 L331.489807,358.465271 L339.216278,348.963440 L347.322449,339.701599 L355.760864,330.737274 L364.480133,322.122406 L373.422607,313.905487 L382.529510,306.126617 L391.735901,298.822784 L400.975647,292.022858 L410.179779,285.750305 L419.278748,280.020538 L428.201233,274.843628 L436.878510,270.220520 L445.240326,266.147430 L453.219238,262.612122 L460.749817,259.597076 L467.769501,257.077026 L474.220612,255.021896 L480.048615,253.394775 L485.204163,252.154861 L489.643585,251.255310 L493.328857,250.646500 L496.228455,250.273880 L498.317719,250.081711 L499.578522,250.010376 L500.000000,250.000381" fill="none" stroke="black" />
</svg>
