<svg xmlns="http://www.w3.org/2000/svg" width="500" height="500">
<path d="M473.214264,250.000000 L472.822754,248.128860 L471.649689,246.250916 L469.699463,244.359406 L466.979614,242.447769 L463.500397,240.509613 L459.275116,238.538910 L454.319763,236.529984 L448.653229,234.477570 L442.296936,232.376968 L435.275055,230.224014 L427.614166,228.015182 L419.343292,225.747681 L410.493652,223.419388 L401.098663,221.029007 L391.193817,218.576080 L380.816345,216.060959 L370.005219,213.485001 L358.801025,210.850327 L347.245728,208.160095 L335.382446,205.418427 L323.255402,202.630295 L310.909668,199.801712 L298.390991,196.939560 L285.745667,194.051727 L273.020294,191.146957 L260.261505,188.234818 L247.516037,185.325851 L234.830322,182.431274 L222.250336,179.563187 L209.821426,176.734207 L197.588287,173.957733 L185.594559,171.247742 L173.882812,168.618668 L162.494247,166.085403 L151.468689,163.663193 L140.844437,161.367554 L130.657867,159.214172 L120.943619,157.218903 L111.734299,155.397568 L103.060410,153.765854 L94.950195,152.339371 L87.429550,151.133362 L80.521973,150.162720 L74.248505,149.441895 L68.627609,148.984756 L63.675045,148.804504 L59.404030,148.913559 L55.824997,149.323502 L52.945675,150.045029 L50.771088,151.087677 L49.303444,152.460052 L48.542366,154.169388 L48.484653,156.221802 L49.124481,158.621994 L50.453453,161.373306 L52.460522,164.477585 L55.132240,167.935242 L58.452621,171.745087 L62.403500,175.904358 L66.964272,180.408707 L72.112381,185.252060 L77.823135,190.426819 L84.069954,195.923630 L90.824486,201.731491 L98.056702,207.837814 L105.735153,214.228348 L113.826927,220.887238 L122.297928,227.797058 L131.112961,234.938858 L140.235992,242.292252 L149.630096,249.835403 L159.257858,257.545135 L169.081451,265.397064 L179.062698,273.365570 L189.163330,281.423920 L199.345078,289.544464 L209.569870,297.698517 L219.800140,305.856873 L229.998489,313.989288 L240.128571,322.065338 L250.154556,330.053925 L260.041473,337.923645 L269.755737,345.643250 L279.264587,353.180969 L288.536865,360.505646 L297.542603,367.585938 L306.253357,374.391083 L314.642487,380.891022 L322.684875,387.055939 L330.357147,392.857117 L337.638000,398.266754 L344.507812,403.258118 L350.948944,407.805511 L356.945923,411.884796 L362.485168,415.473114 L367.555206,418.549347 L372.146606,421.093994 L376.251984,423.089233 L379.866089,424.519348 L382.985718,425.370453 L385.609680,425.630798 L387.738800,425.290802 L389.375732,424.343109 L390.525238,422.782593 L391.193878,420.606567 L391.389832,417.814575 L391.123199,414.408722 L390.405609,410.393463 L389.250244,405.775726 L387.671814,400.564850 L385.686279,394.772705 L383.310974,388.413391 L380.564209,381.503571 L377.465607,374.062225 L374.035583,366.110443 L370.295288,357.671875 L366.266663,348.771973 L361.972229,339.438446 L357.435120,329.701111 L352.678589,319.591339 L347.726227,309.142456 L342.601776,298.389679 L337.328918,287.369202 L331.931305,276.119049 L326.432281,264.678436 L320.854889,253.087433 L315.221924,241.387421 L309.555328,229.620148 L303.876740,217.828400 L298.206940,206.055252 L292.565826,194.343857 L286.972687,182.737915 L281.445709,171.280640 L276.002106,160.015366 L270.658112,148.984818 L265.428650,138.231033 L260.327759,127.795547 L255.368179,117.718964 L250.561295,108.040527 L245.917496,98.798302 L241.445847,90.029198 L237.154053,81.768097 L233.048676,74.048592 L229.134933,66.902069 L225.416946,60.358017 L221.897537,54.443897 L218.578323,49.184666 L215.459824,44.603168 L212.541351,40.719585 L209.821381,37.551552 L207.297134,35.114140 L204.965027,33.419609 L202.820404,32.477497 L200.858109,32.294468 L199.071915,32.874287 L197.455078,34.217880 L196.000122,36.323189 L194.699173,39.185314 L193.543762,42.796463 L192.525253,47.145767 L191.634537,52.219719 L190.862335,58.002010 L190.199341,64.473312 L189.636093,71.611908 L189.163300,79.393509 L188.771576,87.790878 L188.451935,96.774788 L188.195557,106.313629 L187.993973,116.373718 L187.839203,126.918839 L187.723618,137.911407 L187.640198,149.312012 L187.582474,161.079163 L187.544678,173.170425 L187.521606,185.542191 L187.508881,198.148941 L187.502808,210.944992 L187.500565,223.883911 L187.500031,236.918030 L187.500000,249.999954 L187.500061,263.082092 L187.500565,276.116180 L187.502838,289.054932 L187.508881,301.851257 L187.521637,314.457977 L187.544708,326.829498 L187.582535,338.920776 L187.640259,350.688110 L187.723679,362.088531 L187.839264,373.081085 L187.994064,383.626404 L188.195633,393.686279 L188.452011,403.225159 L188.771698,412.209198 L189.163422,420.606567 L189.636261,428.388031 L190.199463,435.526764 L190.862457,441.998077 L191.634628,447.780243 L192.525360,452.854218 L193.543915,457.203583 L194.699280,460.814697 L196.000229,463.676819 L197.455231,465.782166 L199.072098,467.125732 L200.858276,467.705566 L202.820572,467.522491 L204.965118,466.580383 L207.297241,464.885895 L209.821518,462.448486 L212.541504,459.280457 L215.459915,455.396881 L218.578476,450.815308 L221.897675,445.556152 L225.417084,439.641998 L229.135071,433.097900 L233.048767,425.951385 L237.154129,418.231903 L241.445892,409.970886 L245.917618,401.201660 L250.561356,391.959534 L255.368179,382.281128 L260.327881,372.204376 L265.428711,361.769012 L270.658112,351.015320 L276.002228,339.984558 L281.445770,328.719330 L286.972687,317.262177 L292.565887,305.656036 L298.206909,293.944824 L303.876709,282.171692 L309.555267,270.380005 L315.221893,258.612610 L320.854889,246.912567 L326.432159,235.321671 L331.931305,223.880829 L337.328918,212.630768 L342.601715,201.610382 L347.726166,190.857422 L352.678467,180.408691 L357.434967,170.298965 L361.972198,160.561432 L366.266541,151.227997 L370.295105,142.328140 L374.035522,133.889404 L377.465576,125.937714 L380.564148,118.496361 L383.310791,111.586464 L385.686096,105.227203 L387.671661,99.435028 L389.250092,94.224213 L390.405487,89.606422 L391.123047,85.591194 L391.389709,82.185356 L391.193787,79.393372 L390.525177,77.217339 L389.375671,75.656830 L387.738586,74.709045 L385.609528,74.369057 L382.985596,74.629410 L379.865967,75.480553 L376.251862,76.910645 L372.146484,78.905899 L367.555145,81.450508 L362.485077,84.526840 L356.945862,88.115189 L350.948944,92.194420 L344.507629,96.741814 L337.637909,101.733086 L330.357147,107.142715 L322.684723,112.944054 L314.642426,119.108948 L306.253387,125.608772 L297.542450,132.414124 L288.536804,139.494385 L279.264587,146.818970 L269.755676,154.356750 L260.041473,162.076263 L250.154556,169.946014 L240.128479,177.934723 L229.998474,186.010696 L219.800125,194.143112 L209.569962,202.301376 L199.344971,210.455627 L189.163300,218.576111 L179.062759,226.634430 L169.081482,234.602982 L159.257950,242.454880 L149.630203,250.164597 L140.235931,257.707855 L131.112991,265.061188 L122.298004,272.202972 L113.826874,279.112885 L105.735153,285.771729 L98.056747,292.162231 L90.824547,298.268524 L84.070030,304.076508 L77.823235,309.573303 L72.112534,314.748016 L66.964325,319.591431 L62.403561,324.095764 L58.452724,328.255005 L55.132256,332.064880 L52.460552,335.522461 L50.453499,338.626770 L49.124569,341.378174 L48.484684,343.778259 L48.542439,345.830780 L49.303516,347.540070 L50.771118,348.912476 L52.945732,349.955109 L55.825069,350.676575 L59.404045,351.086548 L63.675106,351.195587 L68.627716,351.015381 L74.248489,350.558167 L80.522018,349.837433 L87.429657,348.866730 L94.950111,347.660767 L103.060455,346.234222 L111.734482,344.602478 L120.943542,342.781189 L130.657944,340.785858 L140.844574,338.632538 L151.468658,336.336853 L162.494278,333.914703 L173.882996,331.381317 L185.594437,328.752350 L197.588348,326.042297 L209.821701,323.265747 L222.250244,320.436859 L234.830460,317.568695 L247.516251,314.674103 L260.261505,311.765167 L273.020325,308.853027 L285.745514,305.948303 L298.390900,303.060425 L310.909760,300.198242 L323.255157,297.369690 L335.382416,294.581543 L347.245880,291.839813 L358.800903,289.149628 L370.005249,286.514954 L380.816406,283.938873 L391.193726,281.423889 L401.098633,278.970886 L410.493744,276.580505 L419.343109,274.252228 L427.614166,271.984711 L435.275208,269.775909 L442.296875,267.622955 L448.653259,265.522369 L454.319824,263.469849 L459.275055,261.461060 L463.500397,259.490234 L466.979645,257.552094 L469.699432,255.640442 L471.649658,253.748947 L472.822754,251.871048 L473.214264,249.999893 z" fill="none" stroke="black" />
</svg>
